<svg width="1298" height="485" viewBox="0 0 1298 485" fill="none" xmlns="http://www.w3.org/2000/svg">
<g opacity="0.1" clip-path="url(#clip0_179_458)">
<path fill-rule="evenodd" clip-rule="evenodd" d="M62 422.993C62.0036 388.755 89.3524 361 123.088 361C123.393 361 123.697 361.002 124 361.007C123.996 395.245 96.6477 423 62.9118 423C62.6074 423 62.3034 422.998 62 422.993Z" fill="#4FE309"/>
<path fill-rule="evenodd" clip-rule="evenodd" d="M62.0068 423C96.2453 423.004 124 450.352 124 484.088C124 484.393 123.998 484.697 123.993 485C89.7547 484.996 62 457.648 62 423.912C62 423.607 62.0023 423.303 62.0068 423Z" fill="#4FE309"/>
<path fill-rule="evenodd" clip-rule="evenodd" d="M0.00675964 361C34.2453 361.004 62 388.352 62 422.088C62 422.393 61.9977 422.697 61.9932 423C27.7547 422.996 -5.32919e-06 395.648 -3.85455e-06 361.912C-3.84124e-06 361.607 0.00225447 361.303 0.00675964 361Z" fill="#4FE309"/>
<path fill-rule="evenodd" clip-rule="evenodd" d="M0 484.993C0.00360289 450.755 27.3524 423 61.0882 423C61.3927 423 61.6967 423.002 62.0001 423.007C61.9965 457.245 34.6477 485 0.911833 485C0.607364 485 0.303414 484.998 0 484.993Z" fill="#4FE309"/>
</g>
<g opacity="0.1" clip-path="url(#clip1_179_458)">
<path fill-rule="evenodd" clip-rule="evenodd" d="M1236 61.9932C1236 27.7547 1263.35 0 1297.09 0C1297.39 0 1297.7 0.00226069 1298 0.00676645C1298 34.2453 1270.65 62 1236.91 62C1236.61 62 1236.3 61.9977 1236 61.9932Z" fill="#4FE309"/>
<path fill-rule="evenodd" clip-rule="evenodd" d="M1236.01 62C1270.25 62.0036 1298 89.3524 1298 123.088C1298 123.393 1298 123.697 1297.99 124C1263.75 123.996 1236 96.6476 1236 62.9118C1236 62.6073 1236 62.3034 1236.01 62Z" fill="#4FE309"/>
<path fill-rule="evenodd" clip-rule="evenodd" d="M1174.01 -2.70981e-06C1208.25 0.00359902 1236 27.3524 1236 61.0882C1236 61.3927 1236 61.6966 1235.99 62C1201.75 61.9964 1174 34.6476 1174 0.911751C1174 0.607308 1174 0.303385 1174.01 -2.70981e-06Z" fill="#4FE309"/>
<path fill-rule="evenodd" clip-rule="evenodd" d="M1174 123.993C1174 89.7547 1201.35 62 1235.09 62C1235.39 62 1235.7 62.0023 1236 62.0068C1236 96.2453 1208.65 124 1174.91 124C1174.61 124 1174.3 123.998 1174 123.993Z" fill="#4FE309"/>
</g>
<defs>
<clipPath id="clip0_179_458">
<rect width="124" height="124" fill="white" transform="translate(0 361)"/>
</clipPath>
<clipPath id="clip1_179_458">
<rect width="124" height="124" fill="white" transform="translate(1174)"/>
</clipPath>
</defs>
</svg>
