<svg width="396" height="262" viewBox="0 0 396 262" fill="none" xmlns="http://www.w3.org/2000/svg">
<g opacity="0.04">
<g clip-path="url(#clip0_2320_1846)">
<path fill-rule="evenodd" clip-rule="evenodd" d="M62 61.9932C62.0036 27.7547 89.3524 0 123.088 0C123.393 0 123.697 0.00226069 124 0.00676645C123.996 34.2453 96.6477 62 62.9118 62C62.6074 62 62.3034 61.9977 62 61.9932Z" fill="#045D1D"/>
<path fill-rule="evenodd" clip-rule="evenodd" d="M62.0068 62C96.2453 62.0036 124 89.3524 124 123.088C124 123.393 123.998 123.697 123.993 124C89.7547 123.996 62 96.6476 62 62.9118C62 62.6073 62.0023 62.3034 62.0068 62Z" fill="#045D1D"/>
<path fill-rule="evenodd" clip-rule="evenodd" d="M0.00675964 -2.70981e-06C34.2453 0.00359902 62 27.3524 62 61.0882C62 61.3927 61.9977 61.6966 61.9932 62C27.7547 61.9964 -5.32919e-06 34.6476 -3.85455e-06 0.911751C-3.84124e-06 0.607308 0.00225447 0.303385 0.00675964 -2.70981e-06Z" fill="#045D1D"/>
<path fill-rule="evenodd" clip-rule="evenodd" d="M0 123.993C0.00360289 89.7547 27.3524 62 61.0882 62C61.3927 62 61.6967 62.0023 62.0001 62.0068C61.9965 96.2453 34.6477 124 0.911833 124C0.607364 124 0.303414 123.998 0 123.993Z" fill="#045D1D"/>
</g>
<g clip-path="url(#clip1_2320_1846)">
<path fill-rule="evenodd" clip-rule="evenodd" d="M198 61.9932C198.004 27.7547 225.352 0 259.088 0C259.393 0 259.697 0.00226069 260 0.00676645C259.996 34.2453 232.648 62 198.912 62C198.607 62 198.303 61.9977 198 61.9932Z" fill="#045D1D"/>
<path fill-rule="evenodd" clip-rule="evenodd" d="M198.007 62C232.245 62.0036 260 89.3524 260 123.088C260 123.393 259.998 123.697 259.993 124C225.755 123.996 198 96.6476 198 62.9118C198 62.6073 198.002 62.3034 198.007 62Z" fill="#045D1D"/>
<path fill-rule="evenodd" clip-rule="evenodd" d="M136.007 -2.70981e-06C170.245 0.00359902 198 27.3524 198 61.0882C198 61.3927 197.998 61.6966 197.993 62C163.755 61.9964 136 34.6476 136 0.911751C136 0.607308 136.002 0.303385 136.007 -2.70981e-06Z" fill="#045D1D"/>
<path fill-rule="evenodd" clip-rule="evenodd" d="M136 123.993C136.004 89.7547 163.352 62 197.088 62C197.393 62 197.697 62.0023 198 62.0068C197.996 96.2453 170.648 124 136.912 124C136.607 124 136.303 123.998 136 123.993Z" fill="#045D1D"/>
</g>
<g clip-path="url(#clip2_2320_1846)">
<path fill-rule="evenodd" clip-rule="evenodd" d="M334 61.9932C334.004 27.7547 361.352 0 395.088 0C395.393 0 395.697 0.00226069 396 0.00676645C395.996 34.2453 368.648 62 334.912 62C334.607 62 334.303 61.9977 334 61.9932Z" fill="#045D1D"/>
<path fill-rule="evenodd" clip-rule="evenodd" d="M334.007 62C368.245 62.0036 396 89.3524 396 123.088C396 123.393 395.998 123.697 395.993 124C361.755 123.996 334 96.6476 334 62.9118C334 62.6073 334.002 62.3034 334.007 62Z" fill="#045D1D"/>
<path fill-rule="evenodd" clip-rule="evenodd" d="M272.007 -2.70981e-06C306.245 0.00359902 334 27.3524 334 61.0882C334 61.3927 333.998 61.6966 333.993 62C299.755 61.9964 272 34.6476 272 0.911751C272 0.607308 272.002 0.303385 272.007 -2.70981e-06Z" fill="#045D1D"/>
<path fill-rule="evenodd" clip-rule="evenodd" d="M272 123.993C272.004 89.7547 299.352 62 333.088 62C333.393 62 333.697 62.0023 334 62.0068C333.996 96.2453 306.648 124 272.912 124C272.607 124 272.303 123.998 272 123.993Z" fill="#045D1D"/>
</g>
<g clip-path="url(#clip3_2320_1846)">
<path fill-rule="evenodd" clip-rule="evenodd" d="M62 199.993C62.0036 165.755 89.3524 138 123.088 138C123.393 138 123.697 138.002 124 138.007C123.996 172.245 96.6477 200 62.9118 200C62.6074 200 62.3034 199.998 62 199.993Z" fill="#045D1D"/>
<path fill-rule="evenodd" clip-rule="evenodd" d="M62.0068 200C96.2453 200.004 124 227.352 124 261.088C124 261.393 123.998 261.697 123.993 262C89.7547 261.996 62 234.648 62 200.912C62 200.607 62.0023 200.303 62.0068 200Z" fill="#045D1D"/>
<path fill-rule="evenodd" clip-rule="evenodd" d="M0.00675964 138C34.2453 138.004 62 165.352 62 199.088C62 199.393 61.9977 199.697 61.9932 200C27.7547 199.996 -5.32919e-06 172.648 -3.85455e-06 138.912C-3.84124e-06 138.607 0.00225447 138.303 0.00675964 138Z" fill="#045D1D"/>
<path fill-rule="evenodd" clip-rule="evenodd" d="M0 261.993C0.00360289 227.755 27.3524 200 61.0882 200C61.3927 200 61.6967 200.002 62.0001 200.007C61.9965 234.245 34.6477 262 0.911833 262C0.607364 262 0.303414 261.998 0 261.993Z" fill="#045D1D"/>
</g>
<g clip-path="url(#clip4_2320_1846)">
<path fill-rule="evenodd" clip-rule="evenodd" d="M198 199.993C198.004 165.755 225.352 138 259.088 138C259.393 138 259.697 138.002 260 138.007C259.996 172.245 232.648 200 198.912 200C198.607 200 198.303 199.998 198 199.993Z" fill="#045D1D"/>
<path fill-rule="evenodd" clip-rule="evenodd" d="M198.007 200C232.245 200.004 260 227.352 260 261.088C260 261.393 259.998 261.697 259.993 262C225.755 261.996 198 234.648 198 200.912C198 200.607 198.002 200.303 198.007 200Z" fill="#045D1D"/>
<path fill-rule="evenodd" clip-rule="evenodd" d="M136.007 138C170.245 138.004 198 165.352 198 199.088C198 199.393 197.998 199.697 197.993 200C163.755 199.996 136 172.648 136 138.912C136 138.607 136.002 138.303 136.007 138Z" fill="#045D1D"/>
<path fill-rule="evenodd" clip-rule="evenodd" d="M136 261.993C136.004 227.755 163.352 200 197.088 200C197.393 200 197.697 200.002 198 200.007C197.996 234.245 170.648 262 136.912 262C136.607 262 136.303 261.998 136 261.993Z" fill="#045D1D"/>
</g>
<g clip-path="url(#clip5_2320_1846)">
<path fill-rule="evenodd" clip-rule="evenodd" d="M334 199.993C334.004 165.755 361.352 138 395.088 138C395.393 138 395.697 138.002 396 138.007C395.996 172.245 368.648 200 334.912 200C334.607 200 334.303 199.998 334 199.993Z" fill="#045D1D"/>
<path fill-rule="evenodd" clip-rule="evenodd" d="M334.007 200C368.245 200.004 396 227.352 396 261.088C396 261.393 395.998 261.697 395.993 262C361.755 261.996 334 234.648 334 200.912C334 200.607 334.002 200.303 334.007 200Z" fill="#045D1D"/>
<path fill-rule="evenodd" clip-rule="evenodd" d="M272.007 138C306.245 138.004 334 165.352 334 199.088C334 199.393 333.998 199.697 333.993 200C299.755 199.996 272 172.648 272 138.912C272 138.607 272.002 138.303 272.007 138Z" fill="#045D1D"/>
<path fill-rule="evenodd" clip-rule="evenodd" d="M272 261.993C272.004 227.755 299.352 200 333.088 200C333.393 200 333.697 200.002 334 200.007C333.996 234.245 306.648 262 272.912 262C272.607 262 272.303 261.998 272 261.993Z" fill="#045D1D"/>
</g>
</g>
<defs>
<clipPath id="clip0_2320_1846">
<rect width="124" height="124" fill="white"/>
</clipPath>
<clipPath id="clip1_2320_1846">
<rect width="124" height="124" fill="white" transform="translate(136)"/>
</clipPath>
<clipPath id="clip2_2320_1846">
<rect width="124" height="124" fill="white" transform="translate(272)"/>
</clipPath>
<clipPath id="clip3_2320_1846">
<rect width="124" height="124" fill="white" transform="translate(0 138)"/>
</clipPath>
<clipPath id="clip4_2320_1846">
<rect width="124" height="124" fill="white" transform="translate(136 138)"/>
</clipPath>
<clipPath id="clip5_2320_1846">
<rect width="124" height="124" fill="white" transform="translate(272 138)"/>
</clipPath>
</defs>
</svg>
