<svg width="27" height="27" viewBox="0 0 27 27" fill="none" xmlns="http://www.w3.org/2000/svg">
<path d="M25.7001 18.152L19.3402 15.3021L19.3227 15.294C18.9925 15.1528 18.6324 15.0961 18.2748 15.1291C17.9172 15.1621 17.5735 15.2838 17.2747 15.483C17.2396 15.5063 17.2058 15.5315 17.1735 15.5586L13.8876 18.3599C11.8058 17.3487 9.65663 15.2157 8.64547 13.161L11.4508 9.82512C11.4778 9.79137 11.5034 9.75762 11.5277 9.72117C11.7227 9.42323 11.841 9.0817 11.8721 8.72698C11.9032 8.37227 11.8461 8.01537 11.7059 7.68805V7.67185L8.84798 1.30114C8.66267 0.873542 8.34405 0.517342 7.93967 0.285711C7.53529 0.0540809 7.06684 -0.0405563 6.60426 0.015927C4.77496 0.256643 3.09583 1.15503 1.88049 2.54328C0.665145 3.93154 -0.00329528 5.71472 1.22158e-05 7.5598C1.22158e-05 18.2789 8.72107 27 19.4402 27C21.2852 27.0033 23.0684 26.3349 24.4567 25.1195C25.8449 23.9042 26.7433 22.225 26.984 20.3957C27.0406 19.9333 26.9462 19.465 26.7148 19.0606C26.4834 18.6562 26.1275 18.3375 25.7001 18.152ZM19.4402 24.84C14.8587 24.835 10.4664 23.0128 7.22678 19.7732C3.98722 16.5336 2.16503 12.1412 2.16003 7.5598C2.15495 6.2415 2.6299 4.96642 3.49618 3.97269C4.36246 2.97896 5.56084 2.33453 6.86751 2.15975C6.86698 2.16513 6.86698 2.17056 6.86751 2.17595L9.70253 8.52101L6.91206 11.8609C6.88374 11.8935 6.85801 11.9283 6.83511 11.9649C6.63195 12.2766 6.51278 12.6356 6.48912 13.0069C6.46547 13.3783 6.53815 13.7494 6.70011 14.0844C7.92322 16.586 10.4437 19.0876 12.9723 20.3093C13.3097 20.4698 13.683 20.5399 14.0557 20.513C14.4284 20.486 14.7877 20.3628 15.0985 20.1554C15.1332 20.1321 15.1665 20.1068 15.1984 20.0798L18.4803 17.2799L24.8253 20.1217C24.8253 20.1217 24.8361 20.1217 24.8402 20.1217C24.6675 21.4302 24.0241 22.631 23.0302 23.4994C22.0363 24.3678 20.76 24.8444 19.4402 24.84Z" fill="black"/>
</svg>
