<svg width="30" height="32" viewBox="0 0 30 32" fill="none" xmlns="http://www.w3.org/2000/svg">
<path d="M28.8 7.1634L16.1077 0.283024C15.7686 0.0973785 15.3875 0 15 0C14.6125 0 14.2314 0.0973785 13.8923 0.283024L1.2 7.16626C0.837531 7.36274 0.534957 7.65204 0.323873 8.00394C0.112789 8.35584 0.000937872 8.75743 0 9.16678V22.8332C0.000937872 23.2426 0.112789 23.6442 0.323873 23.9961C0.534957 24.348 0.837531 24.6373 1.2 24.8337L13.8923 31.717C14.2314 31.9026 14.6125 32 15 32C15.3875 32 15.7686 31.9026 16.1077 31.717L28.8 24.8337C29.1625 24.6373 29.465 24.348 29.6761 23.9961C29.8872 23.6442 29.9991 23.2426 30 22.8332V9.16821C29.9998 8.75813 29.8884 8.35565 29.6772 8.00293C29.4661 7.65021 29.1631 7.36024 28.8 7.1634ZM15 2.28355L26.5889 8.57091L22.2938 10.8987L10.7048 4.6113L15 2.28355ZM15 14.8583L3.41106 8.57091L8.30192 5.91736L19.8909 12.2047L15 14.8583ZM27.6923 22.8389L16.1538 29.0963V16.8345L20.7692 14.3324V19.4309C20.7692 19.7341 20.8908 20.0249 21.1072 20.2392C21.3236 20.4536 21.6171 20.5741 21.9231 20.5741C22.2291 20.5741 22.5226 20.4536 22.739 20.2392C22.9554 20.0249 23.0769 19.7341 23.0769 19.4309V13.0807L27.6923 10.5786V22.8332V22.8389Z" fill="white"/>
</svg>
