<svg width="119" height="138" viewBox="0 0 119 138" fill="none" xmlns="http://www.w3.org/2000/svg">
<path d="M118.822 3.61723C118.77 2.72202 118.391 1.87718 117.757 1.2431C117.122 0.609021 116.278 0.229846 115.382 0.177568C103.305 -0.532929 92.6338 0.891114 83.6643 4.40701C75.0822 7.77043 68.4672 12.9848 64.5268 19.486C59.1531 28.3626 59.1409 39.139 64.3896 49.4275L59.0738 54.7425C58.7333 55.0829 58.4633 55.487 58.2791 55.9317C58.0948 56.3764 58 56.8531 58 57.3344C58 57.8158 58.0948 58.2925 58.2791 58.7372C58.4633 59.1819 58.7333 59.586 59.0738 59.9264C59.7613 60.6138 60.6938 61 61.6661 61C62.1475 61 62.6243 60.9052 63.0691 60.721C63.5139 60.5368 63.918 60.2668 64.2584 59.9264L69.5742 54.6114C74.6796 57.2155 79.9069 58.5298 84.9605 58.5298C90.0948 58.5458 95.1337 57.1422 99.5202 54.4742C106.022 50.5344 111.238 43.9173 114.601 35.3395C118.109 26.3653 119.533 15.6926 118.822 3.61723ZM95.7171 48.2047C89.5901 51.9158 82.4017 52.1963 75.0639 49.0951L100.847 23.316C101.187 22.9756 101.457 22.5715 101.642 22.1268C101.826 21.6821 101.921 21.2054 101.921 20.724C101.921 20.2427 101.826 19.766 101.642 19.3213C101.457 18.8766 101.187 18.4725 100.847 18.1321C100.506 17.7917 100.102 17.5217 99.6575 17.3375C99.2127 17.1533 98.736 17.0585 98.2545 17.0585C97.7731 17.0585 97.2964 17.1533 96.8516 17.3375C96.4068 17.5217 96.0026 17.7917 95.6622 18.1321L69.8975 43.9295C66.805 36.6111 67.0856 29.4055 70.8124 23.2794C77.1896 12.75 92.3257 6.89832 111.68 7.34657C112.101 26.6916 106.248 41.8285 95.7171 48.2047Z" fill="#3C2101"/>
<path d="M44.5 49C35.6987 49 27.0951 51.6099 19.7771 56.4996C12.4592 61.3893 6.75548 68.3393 3.38738 76.4706C0.0192812 84.6019 -0.861967 93.5494 0.855075 102.182C2.57212 110.814 6.81033 118.743 13.0338 124.966C19.2572 131.19 27.1863 135.428 35.8185 137.145C44.4506 138.862 53.3981 137.981 61.5294 134.613C69.6607 131.245 76.6107 125.541 81.5004 118.223C86.3901 110.905 89 102.301 89 93.5C88.9869 81.7019 84.2943 70.3907 75.9518 62.0482C67.6093 53.7057 56.2981 49.0131 44.5 49ZM79.1111 93.5C79.1122 97.2843 78.4899 101.043 77.2693 104.625L60.5695 94.3241C59.5917 93.7183 58.4961 93.3278 57.3556 93.1786L47.9529 91.9095C46.4995 91.7224 45.0225 91.9235 43.672 92.4924C42.3215 93.0612 41.1458 93.9775 40.2643 95.1481H38.5873L37.4707 92.8407C36.9278 91.7108 36.1329 90.7205 35.1471 89.9461C34.1613 89.1718 33.0109 88.634 31.7845 88.3743L30.6803 88.1435L32.3284 85.2593H38.2576C39.6498 85.2589 41.0191 84.906 42.2379 84.2333L47.2854 81.4479C47.8387 81.1386 48.3556 80.7682 48.8264 80.3437L59.9184 70.3188C60.7941 69.5268 61.4894 68.5559 61.9571 67.4718C62.4249 66.3877 62.6543 65.2157 62.6296 64.0352C67.6638 67.1309 71.8216 71.464 74.7066 76.6218C77.5917 81.7795 79.108 87.5901 79.1111 93.5ZM49.7576 59.3009L52.3122 63.8745L42.3368 72.8981L37.8333 75.3704H31.3725C29.9212 75.3721 28.496 75.7561 27.2402 76.4838C25.9845 77.2115 24.9427 78.2571 24.2196 79.5155L22.3695 82.75L19.6459 75.4857L23.7292 65.8358C27.4132 63.0668 31.6136 61.0622 36.0835 59.94C40.5534 58.8177 45.2025 58.6005 49.7576 59.3009ZM9.88891 93.5C9.88805 89.749 10.5005 86.0231 11.7019 82.4698L14.891 90.9783C15.3722 92.2734 16.1731 93.4258 17.219 94.3285C18.265 95.2311 19.5222 95.8546 20.8738 96.1412L28.9209 97.8717L30.157 100.385C30.6985 101.494 31.4808 102.468 32.4467 103.235C33.4126 104.003 34.5378 104.545 35.7401 104.823L33.6799 109.405C33.0243 110.877 32.8146 112.508 33.0768 114.098C33.339 115.688 34.0615 117.166 35.155 118.35L35.2415 118.441L42.7241 126.146L42.3574 128.037C33.5703 127.483 25.3236 123.605 19.2928 117.19C13.2621 110.775 9.89974 102.305 9.88891 93.5ZM52.5965 127.147C52.8308 125.88 52.7665 124.577 52.4089 123.339C52.0513 122.102 51.4101 120.965 50.5364 120.019L50.4498 119.928L43.1485 112.408L47.8334 101.893L55.6621 102.948L72.7328 113.447C67.8969 120.297 60.7437 125.164 52.5965 127.147Z" fill="#3C2101"/>
</svg>
