<svg width="95" height="75" viewBox="0 0 95 75" fill="none" xmlns="http://www.w3.org/2000/svg">
<path d="M90.6238 42.922C89.2502 41.8662 87.6507 41.1454 85.9516 40.8165C91.9592 33.9611 95 27.0978 95 20.3127C95 9.11349 86.01 0.000232841 74.9643 0.000232841C69.645 -0.0253599 64.5312 2.05973 60.7377 5.801C56.9442 2.05973 51.8304 -0.0253599 46.5111 0.000232841C35.4654 0.000232841 26.4754 9.11349 26.4754 20.3127C26.4754 24.2775 27.5344 28.2423 29.6758 32.3048C27.9666 33.0125 26.4143 34.0535 25.1088 35.3673L16.7418 43.7501H7.78689C5.72167 43.7501 3.74105 44.5732 2.28073 46.0383C0.820402 47.5034 0 49.4906 0 51.5626L0 67.1875C0 69.2595 0.820402 71.2467 2.28073 72.7118C3.74105 74.1769 5.72167 75 7.78689 75H46.7213C47.1033 75.0002 47.4839 74.953 47.8543 74.8594L72.7723 68.6094C73.0107 68.5507 73.2438 68.4723 73.4693 68.375L88.5836 61.9141C88.6732 61.8789 88.7588 61.8399 88.8445 61.7969C90.5348 60.9485 91.9822 59.6825 93.0504 58.1181C94.1186 56.5537 94.7724 54.7423 94.9504 52.8544C95.1283 50.9665 94.8246 49.0643 94.0677 47.3267C93.3108 45.5891 92.1256 44.0733 90.6238 42.922ZM46.5111 9.3752C48.6161 9.34262 50.683 9.94073 52.4475 11.093C54.2119 12.2454 55.5936 13.8995 56.416 15.8439C56.768 16.7037 57.3668 17.439 58.1363 17.9565C58.9058 18.474 59.8113 18.7503 60.7377 18.7503C61.6641 18.7503 62.5696 18.474 63.3391 17.9565C64.1086 17.439 64.7074 16.7037 65.0594 15.8439C65.8818 13.8995 67.2635 12.2454 69.0279 11.093C70.7924 9.94073 72.8593 9.34262 74.9643 9.3752C80.7578 9.3752 85.6557 14.383 85.6557 20.3127C85.6557 27.3673 79.8156 35.4845 68.766 43.8243L66.9672 44.2423C66.9672 44.0782 66.9672 43.9142 66.9672 43.7501C66.9672 40.4349 65.6546 37.2555 63.3181 34.9113C60.9815 32.5671 57.8125 31.2501 54.5082 31.2501H39.9896C37.1512 27.2501 35.8197 23.7384 35.8197 20.3127C35.8197 14.383 40.7176 9.3752 46.5111 9.3752ZM9.34426 53.1251H14.0164V65.625H9.34426V53.1251ZM84.7525 53.3633L70.1482 59.6133L46.1451 65.625H23.3607V50.3907L31.716 42.0079C32.1479 41.5699 32.6621 41.2221 33.2288 40.9848C33.7955 40.7474 34.4035 40.6252 35.0176 40.6251H54.5082C55.3343 40.6251 56.1265 40.9543 56.7107 41.5404C57.2948 42.1264 57.623 42.9213 57.623 43.7501C57.623 44.5789 57.2948 45.3737 56.7107 45.9598C56.1265 46.5458 55.3343 46.8751 54.5082 46.8751H43.6066C42.3674 46.8751 41.1791 47.3689 40.3029 48.248C39.4267 49.1271 38.9344 50.3194 38.9344 51.5626C38.9344 52.8058 39.4267 53.998 40.3029 54.8771C41.1791 55.7562 42.3674 56.2501 43.6066 56.2501H56.0656C56.4179 56.2501 56.7692 56.2108 57.1129 56.1329L83.199 50.1134L83.382 50.0665C83.6479 49.9939 83.9269 49.9837 84.1974 50.0368C84.4679 50.0899 84.7226 50.2047 84.9417 50.3724C85.1609 50.5401 85.3386 50.7562 85.461 51.0039C85.5835 51.2517 85.6475 51.5243 85.6479 51.8009C85.6499 52.1175 85.568 52.429 85.4107 52.7035C85.2533 52.978 85.0262 53.2057 84.7525 53.3633Z" fill="#3C2101"/>
</svg>
