<svg width="91" height="130" viewBox="0 0 91 130" fill="none" xmlns="http://www.w3.org/2000/svg">
<path d="M67.0312 94.198C67.0312 95.247 66.7167 96.2725 66.1275 97.1448C65.5383 98.017 64.7008 98.6968 63.7209 99.0983C62.741 99.4997 61.6628 99.6048 60.6226 99.4001C59.5824 99.1954 58.6269 98.6903 57.8769 97.9485C57.1269 97.2067 56.6162 96.2617 56.4093 95.2328C56.2024 94.2039 56.3086 93.1374 56.7144 92.1683C57.1203 91.1991 57.8076 90.3707 58.6895 89.7879C59.5714 89.2051 60.6082 88.894 61.6688 88.894C63.091 88.894 64.4549 89.4528 65.4606 90.4475C66.4663 91.4422 67.0312 92.7913 67.0312 94.198ZM52.2844 75.634H38.8781C37.8115 75.634 36.7885 76.0531 36.0342 76.7991C35.28 77.5452 34.8563 78.557 34.8563 79.612C34.8563 80.667 35.28 81.6789 36.0342 82.4249C36.7885 83.1709 37.8115 83.59 38.8781 83.59H52.2844C53.351 83.59 54.374 83.1709 55.1283 82.4249C55.8825 81.6789 56.3063 80.667 56.3063 79.612C56.3063 78.557 55.8825 77.5452 55.1283 76.7991C54.374 76.0531 53.351 75.634 52.2844 75.634ZM85.8 91.546V102.154C85.8003 104.59 84.8328 106.928 83.1061 108.664C81.3794 110.4 79.0319 111.396 76.5698 111.436L71.4553 125.601C70.99 126.889 70.1335 128.003 69.0031 128.79C67.8727 129.578 66.5237 130 65.141 130H60.8778C59.4951 130 58.1461 129.578 57.0157 128.79C55.8853 128.003 55.0287 126.889 54.5634 125.601L54.2283 124.696H36.9242L36.589 125.601C36.1243 126.887 35.2693 128 34.1409 128.788C33.0125 129.575 31.6657 129.998 30.2847 130H26.0215C24.6388 130 23.2899 129.578 22.1594 128.79C21.029 128.003 20.1725 126.889 19.7072 125.601L15.5848 114.181C12.0611 110.169 9.66314 105.314 8.63027 100.099C8.24759 100.718 8.04466 101.429 8.04375 102.154C8.04375 103.209 7.62002 104.221 6.86577 104.967C6.11152 105.713 5.08854 106.132 4.02188 106.132C2.95521 106.132 1.93223 105.713 1.17798 104.967C0.423732 104.221 0 103.209 0 102.154C0.00380491 99.6537 0.79997 97.2174 2.27651 95.1879C3.75305 93.1584 5.83567 91.6378 8.23144 90.8399C9.07637 83.3822 12.6678 76.4932 18.3203 71.4874C23.9729 66.4817 31.291 63.7095 38.8781 63.7H73.7344C74.801 63.7 75.824 64.1191 76.5783 64.8651C77.3325 65.6112 77.7563 66.623 77.7563 67.678C77.7563 68.733 77.3325 69.7449 76.5783 70.4909C75.824 71.2369 74.801 71.656 73.7344 71.656H70.3828C73.6124 74.5642 76.1806 78.1179 77.9171 82.0817L78.0579 82.4132C80.2255 82.7976 82.1879 83.9224 83.6028 85.5914C85.0177 87.2605 85.7953 89.3679 85.8 91.546ZM77.7563 91.546C77.7563 91.1943 77.615 90.8571 77.3636 90.6084C77.1122 90.3597 76.7712 90.22 76.4156 90.22H75.189C74.3325 90.22 73.4985 89.9496 72.8083 89.4481C72.118 88.9467 71.6076 88.2404 71.3514 87.4321C69.8955 82.8556 67.0013 78.8579 63.0899 76.0206C59.1784 73.1832 54.4538 71.6542 49.6031 71.656H38.8781C34.4551 71.6557 30.1275 72.9284 26.4232 75.3188C22.7188 77.7093 19.7978 81.1143 18.0163 85.1185C16.2348 89.1227 15.6697 93.5532 16.3902 97.8695C17.1106 102.186 19.0852 106.202 22.0734 109.427C22.436 109.816 22.7153 110.274 22.8945 110.773L26.9667 122.044H29.3396L30.3015 119.392C30.5785 118.617 31.0913 117.946 31.7694 117.471C32.4476 116.996 33.2578 116.741 34.0887 116.74H57.0738C57.9047 116.741 58.7149 116.996 59.3931 117.471C60.0712 117.946 60.5841 118.617 60.861 119.392L61.8229 122.044H64.1958L69.9471 106.132C70.2241 105.357 70.7369 104.686 71.4151 104.211C72.0932 103.736 72.9035 103.481 73.7344 103.48H76.4156C76.7712 103.48 77.1122 103.34 77.3636 103.092C77.615 102.843 77.7563 102.506 77.7563 102.154V91.546Z" fill="#3C2101"/>
<path d="M90.8791 3.7097C90.8236 2.77574 90.426 1.8945 89.7616 1.23293C89.0973 0.571366 88.2123 0.175436 87.2743 0.120156C70.2355 -0.876763 56.5041 4.37537 50.5419 14.1789C46.6588 20.549 46.5245 28.2473 50.0749 35.6143C48.3469 37.8096 47.0176 40.2888 46.1471 42.9399L42.0977 38.9076C44.3975 33.5663 44.1544 28.0434 41.33 23.3996C36.8584 16.039 26.6742 12.1023 14.091 12.8253C13.1525 12.8807 12.2671 13.277 11.6027 13.9393C10.9382 14.6015 10.5409 15.4835 10.4862 16.418C9.7569 28.948 13.7103 39.0892 21.0958 43.5419C23.6007 45.0621 26.4787 45.8634 29.4121 45.8574C31.9131 45.837 34.3836 45.3092 36.6729 44.3063L44.9412 52.5523V59.8779C44.9412 60.8916 45.3456 61.8638 46.0654 62.5805C46.7852 63.2973 47.7615 63.7 48.7795 63.7C49.7975 63.7 50.7738 63.2973 51.4936 62.5805C52.2134 61.8638 52.6178 60.8916 52.6178 59.8779V50.4852C52.6099 47.0687 53.6708 43.7346 55.6532 40.946C58.8645 42.4607 62.3675 43.2637 65.9207 43.2998C69.7436 43.3084 73.4948 42.2657 76.7606 40.2867C86.6026 34.3498 91.8835 20.6764 90.8791 3.7097ZM25.0717 37.003C20.8528 34.4549 18.2971 28.2568 18.0892 20.3993C25.9801 20.6064 32.2077 23.1512 34.7633 27.3523C35.7628 28.971 36.1727 30.8828 35.9244 32.7669L32.3004 29.1455C31.5794 28.4274 30.6014 28.0241 29.5817 28.0241C28.5619 28.0241 27.5839 28.4274 26.8629 29.1455C26.1418 29.8635 25.7367 30.8373 25.7367 31.8527C25.7367 32.8682 26.1418 33.842 26.8629 34.56L30.4901 38.1719C28.6031 38.4039 26.693 37.9918 25.0717 37.003ZM72.7848 33.7606C69.3751 35.8149 65.4281 36.2035 61.3307 34.9582L73.2454 23.0971C73.9665 22.379 74.3716 21.4052 74.3716 20.3898C74.3716 19.3743 73.9665 18.4005 73.2454 17.6825C72.5243 16.9645 71.5463 16.5611 70.5266 16.5611C69.5069 16.5611 68.5289 16.9645 67.8078 17.6825L55.8931 29.5436C54.6553 25.4795 55.0455 21.5332 57.0958 18.1539C61.158 11.4653 70.7377 7.64323 83.1066 7.64323H83.3241C83.3689 20.0649 79.5306 29.6774 72.7848 33.7606Z" fill="#3C2101"/>
</svg>
