<svg width="235" height="73" viewBox="0 0 235 73" fill="none" xmlns="http://www.w3.org/2000/svg">
<path d="M18.5938 49.5664C15.4036 49.5664 12.5065 48.974 9.90234 47.7891C7.27214 46.6172 5.16927 44.7943 3.59375 42.3203C2.01823 39.8464 1.23047 36.7279 1.23047 32.9648C1.23047 29.9701 1.84896 27.2878 3.08594 24.918C4.32292 22.5482 6.11979 20.6927 8.47656 19.3516C10.8464 17.9974 13.6328 17.3203 16.8359 17.3203C18.1901 17.3203 19.5052 17.5482 20.7812 18.0039C22.0703 18.4596 23.0859 19.1237 23.8281 19.9961L24.4727 17.9258H31.2305V29.3906H25.1953C24.7917 27.75 24.0169 26.5065 22.8711 25.6602C21.7253 24.8138 20.5273 24.3906 19.2773 24.3906C17.194 24.3906 15.5469 25.1523 14.3359 26.6758C13.125 28.1992 12.5195 30.2956 12.5195 32.9648C12.5195 35.6602 13.1185 37.776 14.3164 39.3125C15.5143 40.8359 17.207 41.5977 19.3945 41.5977C19.9154 41.5977 20.4753 41.5456 21.0742 41.4414C21.5169 41.3633 21.9336 41.2591 22.3242 41.1289C22.7148 40.9857 22.9753 40.901 23.1055 40.875V38.1211H19.3555V32.3203H31.875V46.2852C29.8698 47.3529 27.7214 48.1667 25.4297 48.7266C23.138 49.2865 20.8594 49.5664 18.5938 49.5664ZM46.2633 49H31.2633V43.1211H33.7828V34.1172H31.2633V28.8438L43.1383 27.6719V31.0703C43.5549 30.4193 44.1669 29.8398 44.9742 29.332C45.7815 28.8112 46.6409 28.4076 47.5523 28.1211C48.4768 27.8216 49.3036 27.6719 50.0328 27.6719V35.9531C48.5094 35.4453 47.2529 35.1914 46.2633 35.1914C45.0133 35.1914 44.1799 35.556 43.7633 36.2852C43.3466 37.0013 43.1383 37.9453 43.1383 39.1172V43.1211H46.2633V49ZM60.4758 49.3516C58.0539 49.3516 55.951 48.9023 54.1672 48.0039C52.3703 47.1185 50.9901 45.849 50.0266 44.1953C49.076 42.5417 48.6008 40.6081 48.6008 38.3945C48.6008 36.207 49.0695 34.306 50.007 32.6914C50.9315 31.0898 52.2401 29.8529 53.9328 28.9805C55.6255 28.1081 57.6112 27.6719 59.8898 27.6719C61.9862 27.6719 63.8352 28.082 65.4367 28.9023C67.0383 29.7357 68.2753 30.9141 69.1477 32.4375C70.0331 33.9609 70.4758 35.7383 70.4758 37.7695C70.4758 38.4727 70.3716 39.1367 70.1633 39.7617H57.9953C57.9953 40.9857 58.4576 41.9688 59.382 42.7109C60.3065 43.4401 61.4198 43.8047 62.7219 43.8047C63.7115 43.8047 64.7987 43.6354 65.9836 43.2969C67.1685 42.9453 68.3599 42.4049 69.5578 41.6758L69.8898 41.793V47.0469C68.5487 47.8151 67.1685 48.3945 65.7492 48.7852C64.343 49.1628 62.5852 49.3516 60.4758 49.3516ZM57.9953 35.7578V36.3242H62.9953V35.9141C62.9953 34.9896 62.7805 34.1953 62.3508 33.5312C61.9341 32.8542 61.3091 32.5156 60.4758 32.5156C59.7857 32.5156 59.1997 32.8607 58.718 33.5508C58.2362 34.2279 57.9953 34.9635 57.9953 35.7578ZM81.7977 49.3516C79.3758 49.3516 77.2729 48.9023 75.4891 48.0039C73.6922 47.1185 72.312 45.849 71.3484 44.1953C70.3979 42.5417 69.9227 40.6081 69.9227 38.3945C69.9227 36.207 70.3914 34.306 71.3289 32.6914C72.2534 31.0898 73.562 29.8529 75.2547 28.9805C76.9474 28.1081 78.9331 27.6719 81.2117 27.6719C83.3081 27.6719 85.157 28.082 86.7586 28.9023C88.3602 29.7357 89.5971 30.9141 90.4695 32.4375C91.3549 33.9609 91.7977 35.7383 91.7977 37.7695C91.7977 38.4727 91.6935 39.1367 91.4852 39.7617H79.3172C79.3172 40.9857 79.7794 41.9688 80.7039 42.7109C81.6284 43.4401 82.7417 43.8047 84.0437 43.8047C85.0333 43.8047 86.1206 43.6354 87.3055 43.2969C88.4904 42.9453 89.6818 42.4049 90.8797 41.6758L91.2117 41.793V47.0469C89.8706 47.8151 88.4904 48.3945 87.0711 48.7852C85.6648 49.1628 83.907 49.3516 81.7977 49.3516ZM79.3172 35.7578V36.3242H84.3172V35.9141C84.3172 34.9896 84.1023 34.1953 83.6727 33.5312C83.256 32.8542 82.631 32.5156 81.7977 32.5156C81.1075 32.5156 80.5216 32.8607 80.0398 33.5508C79.5581 34.2279 79.3172 34.9635 79.3172 35.7578ZM103.12 49.3516C100.737 49.3516 98.6599 48.8958 96.8891 47.9844C95.1052 47.0859 93.7185 45.8099 92.7289 44.1562C91.7393 42.5026 91.2445 40.556 91.2445 38.3164C91.2445 36.2982 91.6612 34.4818 92.4945 32.8672C93.3148 31.2526 94.4867 29.9831 96.0102 29.0586C97.5466 28.1341 99.3305 27.6719 101.362 27.6719C102.13 27.6719 102.944 27.7695 103.803 27.9648C104.662 28.1471 105.431 28.4206 106.108 28.7852C106.798 29.1497 107.254 29.6055 107.475 30.1523L108.276 28.082H112.534V36.7148H106.889C106.785 35.6732 106.479 34.8594 105.971 34.2734C105.463 33.6875 104.832 33.3945 104.077 33.3945C102.957 33.3945 102.104 33.7526 101.518 34.4688C100.932 35.1719 100.639 36.4674 100.639 38.3555C100.639 39.6576 100.873 40.6862 101.342 41.4414C101.824 42.1836 102.442 42.7174 103.198 43.043C103.966 43.3555 104.78 43.5117 105.639 43.5117C106.577 43.5117 107.592 43.349 108.686 43.0234C109.78 42.6849 110.75 42.1576 111.596 41.4414L111.889 41.6367V47.0859C111.889 47.138 111.492 47.3594 110.698 47.75C109.903 48.1536 108.849 48.5247 107.534 48.8633C106.218 49.1888 104.747 49.3516 103.12 49.3516ZM124.129 49.3516C121.759 49.3516 119.695 48.9154 117.938 48.043C116.154 47.1836 114.767 45.9206 113.777 44.2539C112.788 42.5872 112.293 40.6081 112.293 38.3164C112.293 36.0378 112.788 34.1042 113.777 32.5156C114.767 30.9141 116.154 29.7096 117.938 28.9023C119.721 28.082 121.785 27.6719 124.129 27.6719C126.538 27.6719 128.628 28.0885 130.398 28.9219C132.182 29.7552 133.562 30.9661 134.539 32.5547C135.516 34.1302 136.004 36.0508 136.004 38.3164C136.004 40.6081 135.516 42.5872 134.539 44.2539C133.549 45.9206 132.156 47.1901 130.359 48.0625C128.576 48.9219 126.499 49.3516 124.129 49.3516ZM124.129 43.6484C124.988 43.6484 125.626 43.2253 126.043 42.3789C126.447 41.5586 126.648 40.2044 126.648 38.3164C126.648 36.5846 126.447 35.3346 126.043 34.5664C125.652 33.7852 125.014 33.3945 124.129 33.3945C123.283 33.3945 122.658 33.7852 122.254 34.5664C121.85 35.3346 121.648 36.5846 121.648 38.3164C121.648 40.1654 121.857 41.5195 122.273 42.3789C122.69 43.2253 123.309 43.6484 124.129 43.6484ZM174.904 35.7188V43.3555H177.619V49H165.548V35.6797C165.548 35.1198 165.366 34.625 165.002 34.1953C164.637 33.7656 164.201 33.5508 163.693 33.5508C162.742 33.5508 162.143 34.026 161.896 34.9766C161.636 35.9531 161.505 37.3203 161.505 39.0781V49H152.13V35.6797C152.13 35.1198 151.948 34.625 151.584 34.1953C151.232 33.7656 150.802 33.5508 150.295 33.5508C149.344 33.5508 148.745 34.026 148.498 34.9766C148.237 35.9531 148.107 37.3203 148.107 39.0781V43.3555H148.146V49H135.939V43.3555H138.771V34.1172H135.939V28.8438L148.107 27.6719V30.6016C149.005 29.5339 150.028 28.7786 151.173 28.3359C152.319 27.8932 153.615 27.6719 155.06 27.6719C158.016 27.6719 159.949 28.9284 160.861 31.4414C161.824 30.0742 162.931 29.1042 164.181 28.5312C165.431 27.9583 166.857 27.6719 168.459 27.6719C172.755 27.6719 174.904 30.3542 174.904 35.7188ZM183.238 49.3516C181.909 49.3516 180.705 49.0911 179.624 48.5703C178.53 48.0625 177.658 47.3268 177.007 46.3633C176.356 45.3997 176.03 44.2799 176.03 43.0039C176.03 41.6237 176.415 40.4518 177.183 39.4883C177.951 38.5508 178.954 37.8477 180.191 37.3789C181.441 36.9102 182.788 36.6758 184.234 36.6758C185.939 36.6758 187.58 36.9297 189.155 37.4375V36.5586C189.155 35.5169 188.713 34.7227 187.827 34.1758C186.955 33.6289 185.77 33.3555 184.273 33.3555C183.635 33.3555 182.918 33.4336 182.124 33.5898C181.33 33.7461 180.555 33.9609 179.8 34.2344C179.045 34.5078 178.387 34.8138 177.827 35.1523L177.261 34.918V29.2344C178.836 28.6745 180.445 28.2773 182.085 28.043C183.726 27.7956 185.256 27.6719 186.675 27.6719C194.592 27.6719 198.55 29.8984 198.55 34.3516V43.1211H200.386V49H190.386L189.507 45.7969C188.947 46.8906 188.075 47.7565 186.89 48.3945C185.705 49.0326 184.488 49.3516 183.238 49.3516ZM186.909 44.3516C187.339 44.3516 187.775 44.2799 188.218 44.1367C188.674 43.9935 188.986 43.8438 189.155 43.6875V40.4062C188.96 40.3802 188.648 40.3021 188.218 40.1719C187.775 40.0547 187.391 39.9961 187.066 39.9961C186.376 39.9961 185.822 40.2109 185.405 40.6406C185.002 41.0703 184.8 41.6432 184.8 42.3594C184.8 42.8932 184.989 43.362 185.366 43.7656C185.757 44.1562 186.271 44.3516 186.909 44.3516ZM214.423 49H199.423V43.1211H201.942V34.1172H199.423V28.8438L211.298 27.6719V31.0703C211.714 30.4193 212.326 29.8398 213.134 29.332C213.941 28.8112 214.8 28.4076 215.712 28.1211C216.636 27.8216 217.463 27.6719 218.192 27.6719V35.9531C216.669 35.4453 215.412 35.1914 214.423 35.1914C213.173 35.1914 212.339 35.556 211.923 36.2852C211.506 37.0013 211.298 37.9453 211.298 39.1172V43.1211H214.423V49ZM226.799 49.3516C221.786 49.3516 219.28 46.7409 219.28 41.5195V33.8047H216.155V28.082H219.28V23.6094L228.635 21.5195V28.082H232.385V33.8047H228.635V40.8359C228.635 41.4219 228.857 41.9102 229.299 42.3008C229.742 42.6914 230.295 42.8867 230.959 42.8867C231.441 42.8867 231.916 42.8477 232.385 42.7695V48.1992C230.666 48.9674 228.804 49.3516 226.799 49.3516Z" fill="#4FE309"/>
<path d="M8.32 63.4H12.75V65.08H10.255V65.88H12.75V67.505H10.255V68.32H12.75V70H8.32V63.4ZM19.9002 65.775C20.2135 65.775 20.4952 65.8383 20.7452 65.965C20.9985 66.0883 21.1985 66.2833 21.3452 66.55C21.4952 66.8133 21.5702 67.155 21.5702 67.575V70H19.6352V67.84C19.6352 67.6633 19.6052 67.5033 19.5452 67.36C19.4852 67.2167 19.3502 67.145 19.1402 67.145C19.0002 67.145 18.8868 67.18 18.8002 67.25C18.7135 67.3167 18.6502 67.4033 18.6102 67.51C18.5735 67.6133 18.5552 67.7233 18.5552 67.84V70H16.7602V67.84C16.7602 67.6633 16.7318 67.5033 16.6752 67.36C16.6218 67.2167 16.4885 67.145 16.2752 67.145C16.1352 67.145 16.0202 67.18 15.9302 67.25C15.8435 67.3167 15.7802 67.4033 15.7402 67.51C15.7002 67.6133 15.6802 67.7233 15.6802 67.84V70H13.7302V65.895H15.6802V66.45C15.7235 66.3467 15.8168 66.2433 15.9602 66.14C16.1068 66.0367 16.2818 65.95 16.4852 65.88C16.6918 65.81 16.9035 65.775 17.1202 65.775C17.3602 65.775 17.5602 65.8017 17.7202 65.855C17.8835 65.905 18.0202 65.9817 18.1302 66.085C18.2402 66.185 18.3368 66.3083 18.4202 66.455C18.4635 66.3517 18.5568 66.2483 18.7002 66.145C18.8435 66.0383 19.0202 65.95 19.2302 65.88C19.4402 65.81 19.6635 65.775 19.9002 65.775ZM24.1517 72.08H22.2067V65.895H24.1667V66.375C24.2267 66.2883 24.3201 66.2 24.4467 66.11C24.5734 66.0167 24.7301 65.9383 24.9167 65.875C25.1067 65.8083 25.3184 65.775 25.5517 65.775C25.9617 65.775 26.3067 65.8783 26.5867 66.085C26.8667 66.2917 27.0784 66.56 27.2217 66.89C27.3651 67.22 27.4367 67.5733 27.4367 67.95C27.4367 68.3267 27.3584 68.68 27.2017 69.01C27.0451 69.34 26.8201 69.6083 26.5267 69.815C26.2334 70.0183 25.8817 70.12 25.4717 70.12C25.2017 70.12 24.9751 70.075 24.7917 69.985C24.6084 69.895 24.4651 69.795 24.3617 69.685C24.2584 69.5717 24.1884 69.485 24.1517 69.425V72.08ZM25.5117 67.95C25.5117 67.8367 25.4834 67.73 25.4267 67.63C25.3701 67.53 25.2901 67.45 25.1867 67.39C25.0867 67.3267 24.9701 67.295 24.8367 67.295C24.7034 67.295 24.5867 67.3267 24.4867 67.39C24.3867 67.45 24.3084 67.53 24.2517 67.63C24.1951 67.73 24.1667 67.8367 24.1667 67.95C24.1667 68.0633 24.1951 68.17 24.2517 68.27C24.3084 68.37 24.3867 68.45 24.4867 68.51C24.5867 68.57 24.7034 68.6 24.8367 68.6C24.9701 68.6 25.0867 68.57 25.1867 68.51C25.2901 68.45 25.3701 68.37 25.4267 68.27C25.4834 68.17 25.5117 68.0633 25.5117 67.95ZM30.3259 70.12C29.8592 70.12 29.4442 70.03 29.0809 69.85C28.7175 69.6667 28.4325 69.4133 28.2259 69.09C28.0192 68.7633 27.9159 68.3867 27.9159 67.96C27.9159 67.5333 28.0192 67.1567 28.2259 66.83C28.4325 66.5 28.7175 66.2417 29.0809 66.055C29.4442 65.8683 29.8592 65.775 30.3259 65.775C30.7925 65.775 31.2042 65.8683 31.5609 66.055C31.9175 66.2417 32.1959 66.5 32.3959 66.83C32.5992 67.1567 32.7009 67.5333 32.7009 67.96C32.7009 68.3867 32.5992 68.7633 32.3959 69.09C32.1959 69.4133 31.9175 69.6667 31.5609 69.85C31.2042 70.03 30.7925 70.12 30.3259 70.12ZM30.3259 68.52C30.4359 68.52 30.5292 68.4983 30.6059 68.455C30.6825 68.4083 30.7409 68.3417 30.7809 68.255C30.8242 68.1683 30.8459 68.0667 30.8459 67.95C30.8459 67.8333 30.8242 67.7317 30.7809 67.645C30.7409 67.5583 30.6825 67.4917 30.6059 67.445C30.5292 67.3983 30.4359 67.375 30.3259 67.375C30.2159 67.375 30.1209 67.3983 30.0409 67.445C29.9642 67.4917 29.9042 67.5583 29.8609 67.645C29.8175 67.7317 29.7959 67.8333 29.7959 67.95C29.7959 68.0667 29.8175 68.1683 29.8609 68.255C29.9042 68.3417 29.9642 68.4083 30.0409 68.455C30.1209 68.4983 30.2159 68.52 30.3259 68.52ZM36.8445 68.105L35.9495 70H34.2095L32.6845 65.895H34.7695L35.3645 67.905L36.2495 65.975H37.4445L38.3145 67.905L38.9145 65.895H41.0045L39.4845 70H37.7495L36.8445 68.105ZM42.818 68.335C42.8346 68.415 42.8763 68.4833 42.943 68.54C43.013 68.5933 43.1013 68.635 43.208 68.665C43.318 68.695 43.4413 68.71 43.578 68.71C43.7246 68.71 43.868 68.7033 44.008 68.69C44.148 68.6767 44.2763 68.655 44.393 68.625C44.5096 68.595 44.603 68.5567 44.673 68.51L45.378 69.745C45.3146 69.785 45.2096 69.835 45.063 69.895C44.9196 69.9517 44.7163 70.0033 44.453 70.05C44.193 70.0967 43.8563 70.12 43.443 70.12C42.9796 70.12 42.5596 70.0417 42.183 69.885C41.8063 69.7283 41.5063 69.4867 41.283 69.16C41.063 68.83 40.953 68.4117 40.953 67.905C40.953 67.505 41.0446 67.145 41.228 66.825C41.4113 66.5017 41.6763 66.2467 42.023 66.06C42.3696 65.87 42.7896 65.775 43.283 65.775C43.7596 65.775 44.1713 65.855 44.518 66.015C44.868 66.175 45.1363 66.4217 45.323 66.755C45.513 67.085 45.608 67.5083 45.608 68.025C45.608 68.0517 45.6063 68.105 45.603 68.185C45.603 68.2617 45.5996 68.3117 45.593 68.335H42.818ZM43.753 67.53C43.7496 67.42 43.728 67.3283 43.688 67.255C43.6513 67.1817 43.6013 67.1283 43.538 67.095C43.4746 67.0583 43.3996 67.04 43.313 67.04C43.2363 67.04 43.163 67.0567 43.093 67.09C43.0263 67.12 42.9713 67.1717 42.928 67.245C42.8846 67.315 42.8613 67.41 42.858 67.53H43.753ZM48.0347 70H46.0647V65.895H48.0347V66.48H48.0097C48.0464 66.4067 48.1147 66.315 48.2147 66.205C48.318 66.095 48.4614 65.9967 48.6447 65.91C48.8314 65.82 49.0647 65.775 49.3447 65.775C49.5314 65.775 49.7097 65.8067 49.8797 65.87C50.0497 65.93 50.1764 65.99 50.2597 66.05L49.5047 67.64C49.4614 67.5733 49.3797 67.5067 49.2597 67.44C49.1397 67.37 48.9897 67.335 48.8097 67.335C48.6164 67.335 48.463 67.375 48.3497 67.455C48.2364 67.5317 48.1547 67.6283 48.1047 67.745C48.058 67.8583 48.0347 67.97 48.0347 68.08V70ZM50.5868 70V65.895H52.5518V70H50.5868ZM51.5918 65.44C51.2985 65.44 51.0485 65.3367 50.8418 65.13C50.6385 64.92 50.5368 64.6717 50.5368 64.385C50.5368 64.0983 50.6385 63.85 50.8418 63.64C51.0485 63.4267 51.2985 63.32 51.5918 63.32C51.7851 63.32 51.9618 63.3683 52.1218 63.465C52.2818 63.5617 52.4101 63.69 52.5068 63.85C52.6068 64.01 52.6568 64.1883 52.6568 64.385C52.6568 64.6717 52.5518 64.92 52.3418 65.13C52.1351 65.3367 51.8851 65.44 51.5918 65.44ZM56.5936 65.775C56.8969 65.775 57.1903 65.835 57.4736 65.955C57.7603 66.0717 57.9953 66.26 58.1786 66.52C58.3653 66.7767 58.4586 67.115 58.4586 67.535V70H56.4886V67.84C56.4886 67.6267 56.4353 67.4583 56.3286 67.335C56.2253 67.2083 56.0853 67.145 55.9086 67.145C55.7919 67.145 55.6836 67.1733 55.5836 67.23C55.4869 67.2867 55.4103 67.3667 55.3536 67.47C55.2969 67.5733 55.2686 67.6967 55.2686 67.84V70H53.2986V65.895H55.2686V66.41C55.3119 66.3033 55.3969 66.2017 55.5236 66.105C55.6503 66.0083 55.8069 65.93 55.9936 65.87C56.1803 65.8067 56.3803 65.775 56.5936 65.775ZM61.4603 72.2C61.197 72.2 60.917 72.18 60.6203 72.14C60.3236 72.1 60.037 72.02 59.7603 71.9C59.4836 71.78 59.2453 71.6 59.0453 71.36L60.1553 70.17C60.242 70.2633 60.342 70.3483 60.4553 70.425C60.572 70.505 60.7053 70.5683 60.8553 70.615C61.0053 70.665 61.1753 70.69 61.3653 70.69C61.5353 70.69 61.6886 70.6683 61.8253 70.625C61.962 70.5817 62.0703 70.51 62.1503 70.41C62.2303 70.31 62.2703 70.1733 62.2703 70V69.92H64.2103V70.11C64.2103 70.57 64.0886 70.955 63.8453 71.265C63.602 71.575 63.272 71.8083 62.8553 71.965C62.442 72.1217 61.977 72.2 61.4603 72.2ZM62.2703 70V69.425C62.237 69.485 62.162 69.5717 62.0453 69.685C61.932 69.795 61.782 69.895 61.5953 69.985C61.412 70.075 61.197 70.12 60.9503 70.12C60.5403 70.12 60.187 70.0183 59.8903 69.815C59.597 69.6083 59.372 69.34 59.2153 69.01C59.0586 68.68 58.9803 68.3267 58.9803 67.95C58.9803 67.5733 59.0586 67.22 59.2153 66.89C59.372 66.56 59.597 66.2917 59.8903 66.085C60.187 65.8783 60.5403 65.775 60.9503 65.775C61.1836 65.775 61.387 65.8083 61.5603 65.875C61.7336 65.9383 61.877 66.0167 61.9903 66.11C62.107 66.2 62.1936 66.2883 62.2503 66.375V65.895H64.2103V70H62.2703ZM60.9103 67.95C60.9103 68.0633 60.9386 68.17 60.9953 68.27C61.052 68.37 61.1303 68.45 61.2303 68.51C61.3303 68.57 61.447 68.6 61.5803 68.6C61.7136 68.6 61.8303 68.57 61.9303 68.51C62.0303 68.45 62.1086 68.37 62.1653 68.27C62.222 68.17 62.2503 68.0633 62.2503 67.95C62.2503 67.8367 62.222 67.73 62.1653 67.63C62.1086 67.53 62.0303 67.45 61.9303 67.39C61.8303 67.3267 61.7136 67.295 61.5803 67.295C61.447 67.295 61.3303 67.3267 61.2303 67.39C61.1303 67.45 61.052 67.53 60.9953 67.63C60.9386 67.73 60.9103 67.8367 60.9103 67.95ZM70.4231 63.28C70.8498 63.28 71.2281 63.3267 71.5581 63.42C71.8915 63.51 72.1598 63.6067 72.3631 63.71C72.5698 63.8133 72.6965 63.8833 72.7431 63.92L71.8281 65.47C71.7748 65.43 71.6815 65.375 71.5481 65.305C71.4181 65.2317 71.2715 65.1667 71.1081 65.11C70.9448 65.0533 70.7881 65.025 70.6381 65.025C70.4615 65.025 70.3148 65.05 70.1981 65.1C70.0815 65.1467 70.0231 65.2283 70.0231 65.345C70.0231 65.425 70.0548 65.4983 70.1181 65.565C70.1815 65.6317 70.2881 65.7 70.4381 65.77C70.5915 65.84 70.7998 65.92 71.0631 66.01C71.3198 66.0933 71.5548 66.1967 71.7681 66.32C71.9815 66.4433 72.1648 66.59 72.3181 66.76C72.4748 66.93 72.5965 67.125 72.6831 67.345C72.7698 67.565 72.8131 67.8133 72.8131 68.09C72.8131 68.4567 72.7365 68.77 72.5831 69.03C72.4331 69.2867 72.2315 69.495 71.9781 69.655C71.7248 69.815 71.4415 69.9317 71.1281 70.005C70.8181 70.0817 70.5031 70.12 70.1831 70.12C69.6931 70.12 69.2565 70.0667 68.8731 69.96C68.4931 69.8533 68.1848 69.7383 67.9481 69.615C67.7148 69.4883 67.5715 69.3983 67.5181 69.345L68.4631 67.73C68.4998 67.76 68.5781 67.8083 68.6981 67.875C68.8215 67.9417 68.9681 68.0117 69.1381 68.085C69.3115 68.1583 69.4898 68.2217 69.6731 68.275C69.8565 68.325 70.0265 68.35 70.1831 68.35C70.3931 68.35 70.5481 68.32 70.6481 68.26C70.7481 68.2 70.7981 68.1133 70.7981 68C70.7981 67.92 70.7665 67.845 70.7031 67.775C70.6431 67.705 70.5331 67.6317 70.3731 67.555C70.2165 67.475 69.9931 67.3833 69.7031 67.28C69.4231 67.1767 69.1565 67.0417 68.9031 66.875C68.6498 66.7083 68.4431 66.4917 68.2831 66.225C68.1231 65.9583 68.0431 65.625 68.0431 65.225C68.0431 64.8183 68.1565 64.47 68.3831 64.18C68.6098 63.89 68.9048 63.6683 69.2681 63.515C69.6315 63.3583 70.0165 63.28 70.4231 63.28ZM75.4787 67.68C75.4787 67.9333 75.5187 68.1367 75.5987 68.29C75.682 68.4433 75.837 68.52 76.0637 68.52C76.297 68.52 76.4537 68.4433 76.5337 68.29C76.6137 68.1367 76.6537 67.9333 76.6537 67.68V65.895H78.5937V67.87C78.5937 68.3367 78.4937 68.7383 78.2937 69.075C78.097 69.4117 77.8103 69.67 77.4337 69.85C77.057 70.03 76.6003 70.12 76.0637 70.12C75.5303 70.12 75.0753 70.03 74.6987 69.85C74.3253 69.67 74.0387 69.4117 73.8387 69.075C73.642 68.7383 73.5437 68.3367 73.5437 67.87V65.895H75.4787V67.68ZM81.3668 65.775C81.6701 65.775 81.9468 65.7983 82.1968 65.845C82.4468 65.8917 82.6535 65.9433 82.8168 66C82.9801 66.0533 83.0801 66.0933 83.1168 66.12L82.5168 67.255C82.4568 67.215 82.3418 67.16 82.1718 67.09C82.0018 67.02 81.8135 66.985 81.6068 66.985C81.4935 66.985 81.4001 66.995 81.3268 67.015C81.2535 67.0317 81.2168 67.0667 81.2168 67.12C81.2168 67.1733 81.2618 67.2183 81.3518 67.255C81.4418 67.2883 81.5835 67.32 81.7768 67.35C81.9601 67.3833 82.1568 67.4433 82.3668 67.53C82.5801 67.6133 82.7618 67.7417 82.9118 67.915C83.0618 68.0883 83.1368 68.3217 83.1368 68.615C83.1368 68.935 83.0651 69.195 82.9218 69.395C82.7818 69.5917 82.5985 69.7433 82.3718 69.85C82.1485 69.9533 81.9085 70.0233 81.6518 70.06C81.3951 70.1 81.1535 70.12 80.9268 70.12C80.5735 70.12 80.2701 70.09 80.0168 70.03C79.7668 69.97 79.5685 69.9033 79.4218 69.83C79.2751 69.7567 79.1768 69.7017 79.1268 69.665L79.7118 68.4C79.7985 68.4667 79.9385 68.545 80.1318 68.635C80.3285 68.725 80.5268 68.77 80.7268 68.77C80.8935 68.77 81.0151 68.7583 81.0918 68.735C81.1685 68.7083 81.2068 68.6717 81.2068 68.625C81.2068 68.5883 81.1885 68.5567 81.1518 68.53C81.1151 68.5033 81.0568 68.4783 80.9768 68.455C80.8968 68.4317 80.7918 68.4083 80.6618 68.385C80.5451 68.3617 80.4118 68.3233 80.2618 68.27C80.1151 68.2167 79.9718 68.14 79.8318 68.04C79.6951 67.94 79.5818 67.81 79.4918 67.65C79.4018 67.49 79.3568 67.295 79.3568 67.065C79.3568 66.7683 79.4535 66.525 79.6468 66.335C79.8401 66.145 80.0901 66.005 80.3968 65.915C80.7035 65.8217 81.0268 65.775 81.3668 65.775ZM83.3906 65.895H84.0156V64.21H85.9606V65.895H86.7906V67.495H85.9606V68.025C85.9606 68.145 85.974 68.255 86.0006 68.355C86.0306 68.455 86.1073 68.505 86.2306 68.505C86.2973 68.505 86.359 68.4883 86.4156 68.455C86.4756 68.4217 86.5123 68.3983 86.5256 68.385L87.1656 69.77C87.139 69.7933 87.0523 69.8333 86.9056 69.89C86.7623 69.9467 86.579 69.9983 86.3556 70.045C86.1356 70.095 85.894 70.12 85.6306 70.12C85.1573 70.12 84.769 69.9917 84.4656 69.735C84.1656 69.4783 84.0156 69.0867 84.0156 68.56V67.495H83.3906V65.895ZM90.698 70V69.425C90.6647 69.485 90.5897 69.5717 90.473 69.685C90.3597 69.795 90.2097 69.895 90.023 69.985C89.8397 70.075 89.6247 70.12 89.378 70.12C88.968 70.12 88.6147 70.0183 88.318 69.815C88.0247 69.6083 87.7997 69.34 87.643 69.01C87.4864 68.68 87.408 68.3267 87.408 67.95C87.408 67.5733 87.4864 67.22 87.643 66.89C87.7997 66.56 88.0247 66.2917 88.318 66.085C88.6147 65.8783 88.968 65.775 89.378 65.775C89.6114 65.775 89.8147 65.8083 89.988 65.875C90.1614 65.9383 90.3047 66.0167 90.418 66.11C90.5347 66.2 90.6214 66.2883 90.678 66.375V65.895H92.638V70H90.698ZM89.338 67.95C89.338 68.0633 89.3664 68.17 89.423 68.27C89.4797 68.37 89.558 68.45 89.658 68.51C89.758 68.57 89.8747 68.6 90.008 68.6C90.1414 68.6 90.258 68.57 90.358 68.51C90.458 68.45 90.5364 68.37 90.593 68.27C90.6497 68.17 90.678 68.0633 90.678 67.95C90.678 67.8367 90.6497 67.73 90.593 67.63C90.5364 67.53 90.458 67.45 90.358 67.39C90.258 67.3267 90.1414 67.295 90.008 67.295C89.8747 67.295 89.758 67.3267 89.658 67.39C89.558 67.45 89.4797 67.53 89.423 67.63C89.3664 67.73 89.338 67.8367 89.338 67.95ZM93.4872 70V65.895H95.4522V70H93.4872ZM94.4922 65.44C94.1989 65.44 93.9489 65.3367 93.7422 65.13C93.5389 64.92 93.4372 64.6717 93.4372 64.385C93.4372 64.0983 93.5389 63.85 93.7422 63.64C93.9489 63.4267 94.1989 63.32 94.4922 63.32C94.6855 63.32 94.8622 63.3683 95.0222 63.465C95.1822 63.5617 95.3105 63.69 95.4072 63.85C95.5072 64.01 95.5572 64.1883 95.5572 64.385C95.5572 64.6717 95.4522 64.92 95.2422 65.13C95.0355 65.3367 94.7855 65.44 94.4922 65.44ZM99.494 65.775C99.7973 65.775 100.091 65.835 100.374 65.955C100.661 66.0717 100.896 66.26 101.079 66.52C101.266 66.7767 101.359 67.115 101.359 67.535V70H99.389V67.84C99.389 67.6267 99.3357 67.4583 99.229 67.335C99.1257 67.2083 98.9857 67.145 98.809 67.145C98.6923 67.145 98.584 67.1733 98.484 67.23C98.3873 67.2867 98.3107 67.3667 98.254 67.47C98.1973 67.5733 98.169 67.6967 98.169 67.84V70H96.199V65.895H98.169V66.41C98.2123 66.3033 98.2973 66.2017 98.424 66.105C98.5507 66.0083 98.7073 65.93 98.894 65.87C99.0807 65.8067 99.2807 65.775 99.494 65.775ZM105.171 70V69.425C105.137 69.485 105.062 69.5717 104.946 69.685C104.832 69.795 104.682 69.895 104.496 69.985C104.312 70.075 104.097 70.12 103.851 70.12C103.441 70.12 103.087 70.0183 102.791 69.815C102.497 69.6083 102.272 69.34 102.116 69.01C101.959 68.68 101.881 68.3267 101.881 67.95C101.881 67.5733 101.959 67.22 102.116 66.89C102.272 66.56 102.497 66.2917 102.791 66.085C103.087 65.8783 103.441 65.775 103.851 65.775C104.084 65.775 104.287 65.8083 104.461 65.875C104.634 65.9383 104.777 66.0167 104.891 66.11C105.007 66.2 105.094 66.2883 105.151 66.375V65.895H107.111V70H105.171ZM103.811 67.95C103.811 68.0633 103.839 68.17 103.896 68.27C103.952 68.37 104.031 68.45 104.131 68.51C104.231 68.57 104.347 68.6 104.481 68.6C104.614 68.6 104.731 68.57 104.831 68.51C104.931 68.45 105.009 68.37 105.066 68.27C105.122 68.17 105.151 68.0633 105.151 67.95C105.151 67.8367 105.122 67.73 105.066 67.63C105.009 67.53 104.931 67.45 104.831 67.39C104.731 67.3267 104.614 67.295 104.481 67.295C104.347 67.295 104.231 67.3267 104.131 67.39C104.031 67.45 103.952 67.53 103.896 67.63C103.839 67.73 103.811 67.8367 103.811 67.95ZM107.91 70V63.12H109.87V66.375C109.907 66.2883 109.983 66.2 110.1 66.11C110.22 66.0167 110.373 65.9383 110.56 65.875C110.747 65.8083 110.957 65.775 111.19 65.775C111.6 65.775 111.95 65.8783 112.24 66.085C112.533 66.2917 112.757 66.56 112.91 66.89C113.063 67.22 113.14 67.5733 113.14 67.95C113.14 68.3267 113.063 68.68 112.91 69.01C112.757 69.34 112.533 69.6083 112.24 69.815C111.95 70.0183 111.6 70.12 111.19 70.12C111.013 70.12 110.838 70.09 110.665 70.03C110.495 69.97 110.34 69.8883 110.2 69.785C110.06 69.6783 109.945 69.5583 109.855 69.425V70H107.91ZM111.215 67.95C111.215 67.8367 111.187 67.73 111.13 67.63C111.073 67.53 110.993 67.45 110.89 67.39C110.79 67.3267 110.673 67.295 110.54 67.295C110.407 67.295 110.29 67.3267 110.19 67.39C110.09 67.45 110.012 67.53 109.955 67.63C109.898 67.73 109.87 67.8367 109.87 67.95C109.87 68.0633 109.898 68.17 109.955 68.27C110.012 68.37 110.09 68.45 110.19 68.51C110.29 68.57 110.407 68.6 110.54 68.6C110.673 68.6 110.79 68.57 110.89 68.51C110.993 68.45 111.073 68.37 111.13 68.27C111.187 68.17 111.215 68.0633 111.215 67.95ZM115.7 70H113.73V63.12H115.7V70ZM118.17 68.335C118.186 68.415 118.228 68.4833 118.295 68.54C118.365 68.5933 118.453 68.635 118.56 68.665C118.67 68.695 118.793 68.71 118.93 68.71C119.076 68.71 119.22 68.7033 119.36 68.69C119.5 68.6767 119.628 68.655 119.745 68.625C119.861 68.595 119.955 68.5567 120.025 68.51L120.73 69.745C120.666 69.785 120.561 69.835 120.415 69.895C120.271 69.9517 120.068 70.0033 119.805 70.05C119.545 70.0967 119.208 70.12 118.795 70.12C118.331 70.12 117.911 70.0417 117.535 69.885C117.158 69.7283 116.858 69.4867 116.635 69.16C116.415 68.83 116.305 68.4117 116.305 67.905C116.305 67.505 116.396 67.145 116.58 66.825C116.763 66.5017 117.028 66.2467 117.375 66.06C117.721 65.87 118.141 65.775 118.635 65.775C119.111 65.775 119.523 65.855 119.87 66.015C120.22 66.175 120.488 66.4217 120.675 66.755C120.865 67.085 120.96 67.5083 120.96 68.025C120.96 68.0517 120.958 68.105 120.955 68.185C120.955 68.2617 120.951 68.3117 120.945 68.335H118.17ZM119.105 67.53C119.101 67.42 119.08 67.3283 119.04 67.255C119.003 67.1817 118.953 67.1283 118.89 67.095C118.826 67.0583 118.751 67.04 118.665 67.04C118.588 67.04 118.515 67.0567 118.445 67.09C118.378 67.12 118.323 67.1717 118.28 67.245C118.236 67.315 118.213 67.41 118.21 67.53H119.105ZM128.06 68.2C128.293 68.2 128.518 68.1633 128.735 68.09C128.955 68.0167 129.125 67.9433 129.245 67.87L130.07 69.51C129.91 69.6433 129.638 69.7783 129.255 69.915C128.872 70.0517 128.42 70.12 127.9 70.12C127.413 70.12 126.953 70.0367 126.52 69.87C126.087 69.7 125.702 69.4617 125.365 69.155C125.032 68.8483 124.77 68.4883 124.58 68.075C124.39 67.6583 124.295 67.2033 124.295 66.71C124.295 66.2167 124.39 65.7617 124.58 65.345C124.77 64.925 125.032 64.5617 125.365 64.255C125.698 63.945 126.082 63.705 126.515 63.535C126.952 63.365 127.413 63.28 127.9 63.28C128.42 63.28 128.872 63.3483 129.255 63.485C129.638 63.6217 129.91 63.7567 130.07 63.89L129.245 65.53C129.125 65.4567 128.955 65.3833 128.735 65.31C128.518 65.2367 128.293 65.2 128.06 65.2C127.743 65.2 127.478 65.245 127.265 65.335C127.052 65.425 126.88 65.545 126.75 65.695C126.623 65.8417 126.532 66.0033 126.475 66.18C126.422 66.3533 126.395 66.525 126.395 66.695C126.395 66.8683 126.422 67.0433 126.475 67.22C126.532 67.3967 126.623 67.56 126.75 67.71C126.88 67.8567 127.052 67.975 127.265 68.065C127.478 68.155 127.743 68.2 128.06 68.2ZM134.153 65.775C134.456 65.775 134.75 65.835 135.033 65.955C135.32 66.0717 135.555 66.26 135.738 66.52C135.925 66.7767 136.018 67.115 136.018 67.535V70H134.048V67.84C134.048 67.6267 134.001 67.4583 133.908 67.335C133.818 67.2083 133.685 67.145 133.508 67.145C133.391 67.145 133.28 67.1733 133.173 67.23C133.07 67.2867 132.986 67.3667 132.923 67.47C132.86 67.5733 132.828 67.6967 132.828 67.84V70H130.858V63.12H132.828V66.41C132.871 66.3033 132.956 66.2017 133.083 66.105C133.21 66.0083 133.366 65.93 133.553 65.87C133.74 65.8067 133.94 65.775 134.153 65.775ZM138.949 70.12C138.482 70.12 138.067 70.03 137.704 69.85C137.341 69.6667 137.056 69.4133 136.849 69.09C136.642 68.7633 136.539 68.3867 136.539 67.96C136.539 67.5333 136.642 67.1567 136.849 66.83C137.056 66.5 137.341 66.2417 137.704 66.055C138.067 65.8683 138.482 65.775 138.949 65.775C139.416 65.775 139.827 65.8683 140.184 66.055C140.541 66.2417 140.819 66.5 141.019 66.83C141.222 67.1567 141.324 67.5333 141.324 67.96C141.324 68.3867 141.222 68.7633 141.019 69.09C140.819 69.4133 140.541 69.6667 140.184 69.85C139.827 70.03 139.416 70.12 138.949 70.12ZM138.949 68.52C139.059 68.52 139.152 68.4983 139.229 68.455C139.306 68.4083 139.364 68.3417 139.404 68.255C139.447 68.1683 139.469 68.0667 139.469 67.95C139.469 67.8333 139.447 67.7317 139.404 67.645C139.364 67.5583 139.306 67.4917 139.229 67.445C139.152 67.3983 139.059 67.375 138.949 67.375C138.839 67.375 138.744 67.3983 138.664 67.445C138.587 67.4917 138.527 67.5583 138.484 67.645C138.441 67.7317 138.419 67.8333 138.419 67.95C138.419 68.0667 138.441 68.1683 138.484 68.255C138.527 68.3417 138.587 68.4083 138.664 68.455C138.744 68.4983 138.839 68.52 138.949 68.52ZM142.013 70V65.895H143.978V70H142.013ZM143.018 65.44C142.724 65.44 142.474 65.3367 142.268 65.13C142.064 64.92 141.963 64.6717 141.963 64.385C141.963 64.0983 142.064 63.85 142.268 63.64C142.474 63.4267 142.724 63.32 143.018 63.32C143.211 63.32 143.388 63.3683 143.548 63.465C143.708 63.5617 143.836 63.69 143.933 63.85C144.033 64.01 144.083 64.1883 144.083 64.385C144.083 64.6717 143.978 64.92 143.768 65.13C143.561 65.3367 143.311 65.44 143.018 65.44ZM147.259 68.6C147.399 68.6 147.518 68.5733 147.614 68.52C147.714 68.4667 147.786 68.4183 147.829 68.375L148.714 69.69C148.648 69.7433 148.548 69.805 148.414 69.875C148.281 69.9417 148.116 69.9983 147.919 70.045C147.726 70.095 147.504 70.12 147.254 70.12C146.714 70.12 146.254 70.0267 145.874 69.84C145.498 69.6533 145.209 69.3967 145.009 69.07C144.813 68.7433 144.714 68.3683 144.714 67.945C144.714 67.5183 144.813 67.1433 145.009 66.82C145.209 66.4933 145.498 66.2383 145.874 66.055C146.254 65.8683 146.714 65.775 147.254 65.775C147.498 65.775 147.718 65.7983 147.914 65.845C148.114 65.8917 148.284 65.9467 148.424 66.01C148.568 66.0733 148.671 66.1317 148.734 66.185L147.829 67.505C147.809 67.485 147.773 67.4583 147.719 67.425C147.669 67.3917 147.606 67.3617 147.529 67.335C147.453 67.3083 147.363 67.295 147.259 67.295C147.129 67.295 147.014 67.3267 146.914 67.39C146.814 67.4533 146.736 67.535 146.679 67.635C146.623 67.7317 146.594 67.835 146.594 67.945C146.594 68.055 146.623 68.16 146.679 68.26C146.736 68.36 146.814 68.4417 146.914 68.505C147.014 68.5683 147.129 68.6 147.259 68.6ZM150.845 68.335C150.862 68.415 150.904 68.4833 150.97 68.54C151.04 68.5933 151.129 68.635 151.235 68.665C151.345 68.695 151.469 68.71 151.605 68.71C151.752 68.71 151.895 68.7033 152.035 68.69C152.175 68.6767 152.304 68.655 152.42 68.625C152.537 68.595 152.63 68.5567 152.7 68.51L153.405 69.745C153.342 69.785 153.237 69.835 153.09 69.895C152.947 69.9517 152.744 70.0033 152.48 70.05C152.22 70.0967 151.884 70.12 151.47 70.12C151.007 70.12 150.587 70.0417 150.21 69.885C149.834 69.7283 149.534 69.4867 149.31 69.16C149.09 68.83 148.98 68.4117 148.98 67.905C148.98 67.505 149.072 67.145 149.255 66.825C149.439 66.5017 149.704 66.2467 150.05 66.06C150.397 65.87 150.817 65.775 151.31 65.775C151.787 65.775 152.199 65.855 152.545 66.015C152.895 66.175 153.164 66.4217 153.35 66.755C153.54 67.085 153.635 67.5083 153.635 68.025C153.635 68.0517 153.634 68.105 153.63 68.185C153.63 68.2617 153.627 68.3117 153.62 68.335H150.845ZM151.78 67.53C151.777 67.42 151.755 67.3283 151.715 67.255C151.679 67.1817 151.629 67.1283 151.565 67.095C151.502 67.0583 151.427 67.04 151.34 67.04C151.264 67.04 151.19 67.0567 151.12 67.09C151.054 67.12 150.999 67.1717 150.955 67.245C150.912 67.315 150.889 67.41 150.885 67.53H151.78ZM156.357 65.775C156.66 65.775 156.937 65.7983 157.187 65.845C157.437 65.8917 157.644 65.9433 157.807 66C157.97 66.0533 158.07 66.0933 158.107 66.12L157.507 67.255C157.447 67.215 157.332 67.16 157.162 67.09C156.992 67.02 156.804 66.985 156.597 66.985C156.484 66.985 156.39 66.995 156.317 67.015C156.244 67.0317 156.207 67.0667 156.207 67.12C156.207 67.1733 156.252 67.2183 156.342 67.255C156.432 67.2883 156.574 67.32 156.767 67.35C156.95 67.3833 157.147 67.4433 157.357 67.53C157.57 67.6133 157.752 67.7417 157.902 67.915C158.052 68.0883 158.127 68.3217 158.127 68.615C158.127 68.935 158.055 69.195 157.912 69.395C157.772 69.5917 157.589 69.7433 157.362 69.85C157.139 69.9533 156.899 70.0233 156.642 70.06C156.385 70.1 156.144 70.12 155.917 70.12C155.564 70.12 155.26 70.09 155.007 70.03C154.757 69.97 154.559 69.9033 154.412 69.83C154.265 69.7567 154.167 69.7017 154.117 69.665L154.702 68.4C154.789 68.4667 154.929 68.545 155.122 68.635C155.319 68.725 155.517 68.77 155.717 68.77C155.884 68.77 156.005 68.7583 156.082 68.735C156.159 68.7083 156.197 68.6717 156.197 68.625C156.197 68.5883 156.179 68.5567 156.142 68.53C156.105 68.5033 156.047 68.4783 155.967 68.455C155.887 68.4317 155.782 68.4083 155.652 68.385C155.535 68.3617 155.402 68.3233 155.252 68.27C155.105 68.2167 154.962 68.14 154.822 68.04C154.685 67.94 154.572 67.81 154.482 67.65C154.392 67.49 154.347 67.295 154.347 67.065C154.347 66.7683 154.444 66.525 154.637 66.335C154.83 66.145 155.08 66.005 155.387 65.915C155.694 65.8217 156.017 65.775 156.357 65.775ZM161.293 65.895H161.863V64.865C161.863 64.4783 161.956 64.1467 162.143 63.87C162.333 63.59 162.578 63.375 162.878 63.225C163.178 63.075 163.493 63 163.823 63C164.233 63 164.543 63.055 164.753 63.165C164.966 63.2717 165.103 63.355 165.163 63.415L164.423 64.84C164.406 64.8133 164.371 64.7767 164.318 64.73C164.265 64.68 164.2 64.655 164.123 64.655C164.076 64.655 164.03 64.6667 163.983 64.69C163.94 64.7133 163.903 64.7517 163.873 64.805C163.843 64.8583 163.828 64.9317 163.828 65.025V65.895H164.743V67.495H163.828V70H161.863V67.495H161.293V65.895ZM167.494 70.12C167.027 70.12 166.612 70.03 166.249 69.85C165.885 69.6667 165.6 69.4133 165.394 69.09C165.187 68.7633 165.084 68.3867 165.084 67.96C165.084 67.5333 165.187 67.1567 165.394 66.83C165.6 66.5 165.885 66.2417 166.249 66.055C166.612 65.8683 167.027 65.775 167.494 65.775C167.96 65.775 168.372 65.8683 168.729 66.055C169.085 66.2417 169.364 66.5 169.564 66.83C169.767 67.1567 169.869 67.5333 169.869 67.96C169.869 68.3867 169.767 68.7633 169.564 69.09C169.364 69.4133 169.085 69.6667 168.729 69.85C168.372 70.03 167.96 70.12 167.494 70.12ZM167.494 68.52C167.604 68.52 167.697 68.4983 167.774 68.455C167.85 68.4083 167.909 68.3417 167.949 68.255C167.992 68.1683 168.014 68.0667 168.014 67.95C168.014 67.8333 167.992 67.7317 167.949 67.645C167.909 67.5583 167.85 67.4917 167.774 67.445C167.697 67.3983 167.604 67.375 167.494 67.375C167.384 67.375 167.289 67.3983 167.209 67.445C167.132 67.4917 167.072 67.5583 167.029 67.645C166.985 67.7317 166.964 67.8333 166.964 67.95C166.964 68.0667 166.985 68.1683 167.029 68.255C167.072 68.3417 167.132 68.4083 167.209 68.455C167.289 68.4983 167.384 68.52 167.494 68.52ZM172.293 70H170.323V65.895H172.293V66.48H172.268C172.304 66.4067 172.373 66.315 172.473 66.205C172.576 66.095 172.719 65.9967 172.903 65.91C173.089 65.82 173.323 65.775 173.603 65.775C173.789 65.775 173.968 65.8067 174.138 65.87C174.308 65.93 174.434 65.99 174.518 66.05L173.763 67.64C173.719 67.5733 173.638 67.5067 173.518 67.44C173.398 67.37 173.248 67.335 173.068 67.335C172.874 67.335 172.721 67.375 172.608 67.455C172.494 67.5317 172.413 67.6283 172.363 67.745C172.316 67.8583 172.293 67.97 172.293 68.08V70ZM177.628 63.4H180.188C180.575 63.4 180.932 63.455 181.258 63.565C181.585 63.6717 181.847 63.845 182.043 64.085C182.243 64.3217 182.343 64.6367 182.343 65.03C182.343 65.28 182.297 65.5033 182.203 65.7C182.113 65.8933 181.987 66.0533 181.823 66.18C181.663 66.3067 181.478 66.3967 181.268 66.45C181.462 66.4767 181.638 66.53 181.798 66.61C181.958 66.6867 182.097 66.7917 182.213 66.925C182.333 67.0583 182.425 67.2233 182.488 67.42C182.555 67.6167 182.588 67.8467 182.588 68.11C182.588 68.4867 182.498 68.8167 182.318 69.1C182.142 69.3833 181.888 69.605 181.558 69.765C181.232 69.9217 180.84 70 180.383 70H177.628V63.4ZM179.568 68.47H179.838C179.982 68.47 180.105 68.455 180.208 68.425C180.315 68.3917 180.397 68.335 180.453 68.255C180.513 68.1717 180.543 68.0567 180.543 67.91C180.543 67.69 180.48 67.5467 180.353 67.48C180.227 67.41 180.055 67.375 179.838 67.375H179.568V68.47ZM179.568 65.88H179.828C179.952 65.88 180.057 65.8667 180.143 65.84C180.233 65.81 180.302 65.7583 180.348 65.685C180.398 65.6117 180.423 65.5117 180.423 65.385C180.423 65.1917 180.37 65.0683 180.263 65.015C180.16 64.9583 180.015 64.93 179.828 64.93H179.568V65.88ZM185.225 67.68C185.225 67.9333 185.265 68.1367 185.345 68.29C185.428 68.4433 185.583 68.52 185.81 68.52C186.043 68.52 186.2 68.4433 186.28 68.29C186.36 68.1367 186.4 67.9333 186.4 67.68V65.895H188.34V67.87C188.34 68.3367 188.24 68.7383 188.04 69.075C187.843 69.4117 187.556 69.67 187.18 69.85C186.803 70.03 186.346 70.12 185.81 70.12C185.276 70.12 184.821 70.03 184.445 69.85C184.071 69.67 183.785 69.4117 183.585 69.075C183.388 68.7383 183.29 68.3367 183.29 67.87V65.895H185.225V67.68ZM191.113 65.775C191.416 65.775 191.693 65.7983 191.943 65.845C192.193 65.8917 192.4 65.9433 192.563 66C192.726 66.0533 192.826 66.0933 192.863 66.12L192.263 67.255C192.203 67.215 192.088 67.16 191.918 67.09C191.748 67.02 191.56 66.985 191.353 66.985C191.24 66.985 191.146 66.995 191.073 67.015C191 67.0317 190.963 67.0667 190.963 67.12C190.963 67.1733 191.008 67.2183 191.098 67.255C191.188 67.2883 191.33 67.32 191.523 67.35C191.706 67.3833 191.903 67.4433 192.113 67.53C192.326 67.6133 192.508 67.7417 192.658 67.915C192.808 68.0883 192.883 68.3217 192.883 68.615C192.883 68.935 192.811 69.195 192.668 69.395C192.528 69.5917 192.345 69.7433 192.118 69.85C191.895 69.9533 191.655 70.0233 191.398 70.06C191.141 70.1 190.9 70.12 190.673 70.12C190.32 70.12 190.016 70.09 189.763 70.03C189.513 69.97 189.315 69.9033 189.168 69.83C189.021 69.7567 188.923 69.7017 188.873 69.665L189.458 68.4C189.545 68.4667 189.685 68.545 189.878 68.635C190.075 68.725 190.273 68.77 190.473 68.77C190.64 68.77 190.761 68.7583 190.838 68.735C190.915 68.7083 190.953 68.6717 190.953 68.625C190.953 68.5883 190.935 68.5567 190.898 68.53C190.861 68.5033 190.803 68.4783 190.723 68.455C190.643 68.4317 190.538 68.4083 190.408 68.385C190.291 68.3617 190.158 68.3233 190.008 68.27C189.861 68.2167 189.718 68.14 189.578 68.04C189.441 67.94 189.328 67.81 189.238 67.65C189.148 67.49 189.103 67.295 189.103 67.065C189.103 66.7683 189.2 66.525 189.393 66.335C189.586 66.145 189.836 66.005 190.143 65.915C190.45 65.8217 190.773 65.775 191.113 65.775ZM193.575 70V65.895H195.54V70H193.575ZM194.58 65.44C194.287 65.44 194.037 65.3367 193.83 65.13C193.627 64.92 193.525 64.6717 193.525 64.385C193.525 64.0983 193.627 63.85 193.83 63.64C194.037 63.4267 194.287 63.32 194.58 63.32C194.773 63.32 194.95 63.3683 195.11 63.465C195.27 63.5617 195.398 63.69 195.495 63.85C195.595 64.01 195.645 64.1883 195.645 64.385C195.645 64.6717 195.54 64.92 195.33 65.13C195.123 65.3367 194.873 65.44 194.58 65.44ZM199.582 65.775C199.885 65.775 200.179 65.835 200.462 65.955C200.749 66.0717 200.984 66.26 201.167 66.52C201.354 66.7767 201.447 67.115 201.447 67.535V70H199.477V67.84C199.477 67.6267 199.424 67.4583 199.317 67.335C199.214 67.2083 199.074 67.145 198.897 67.145C198.78 67.145 198.672 67.1733 198.572 67.23C198.475 67.2867 198.399 67.3667 198.342 67.47C198.285 67.5733 198.257 67.6967 198.257 67.84V70H196.287V65.895H198.257V66.41C198.3 66.3033 198.385 66.2017 198.512 66.105C198.639 66.0083 198.795 65.93 198.982 65.87C199.169 65.8067 199.369 65.775 199.582 65.775ZM203.834 68.335C203.85 68.415 203.892 68.4833 203.959 68.54C204.029 68.5933 204.117 68.635 204.224 68.665C204.334 68.695 204.457 68.71 204.594 68.71C204.74 68.71 204.884 68.7033 205.024 68.69C205.164 68.6767 205.292 68.655 205.409 68.625C205.525 68.595 205.619 68.5567 205.689 68.51L206.394 69.745C206.33 69.785 206.225 69.835 206.079 69.895C205.935 69.9517 205.732 70.0033 205.469 70.05C205.209 70.0967 204.872 70.12 204.459 70.12C203.995 70.12 203.575 70.0417 203.199 69.885C202.822 69.7283 202.522 69.4867 202.299 69.16C202.079 68.83 201.969 68.4117 201.969 67.905C201.969 67.505 202.06 67.145 202.244 66.825C202.427 66.5017 202.692 66.2467 203.039 66.06C203.385 65.87 203.805 65.775 204.299 65.775C204.775 65.775 205.187 65.855 205.534 66.015C205.884 66.175 206.152 66.4217 206.339 66.755C206.529 67.085 206.624 67.5083 206.624 68.025C206.624 68.0517 206.622 68.105 206.619 68.185C206.619 68.2617 206.615 68.3117 206.609 68.335H203.834ZM204.769 67.53C204.765 67.42 204.744 67.3283 204.704 67.255C204.667 67.1817 204.617 67.1283 204.554 67.095C204.49 67.0583 204.415 67.04 204.329 67.04C204.252 67.04 204.179 67.0567 204.109 67.09C204.042 67.12 203.987 67.1717 203.944 67.245C203.9 67.315 203.877 67.41 203.874 67.53H204.769ZM209.345 65.775C209.649 65.775 209.925 65.7983 210.175 65.845C210.425 65.8917 210.632 65.9433 210.795 66C210.959 66.0533 211.059 66.0933 211.095 66.12L210.495 67.255C210.435 67.215 210.32 67.16 210.15 67.09C209.98 67.02 209.792 66.985 209.585 66.985C209.472 66.985 209.379 66.995 209.305 67.015C209.232 67.0317 209.195 67.0667 209.195 67.12C209.195 67.1733 209.24 67.2183 209.33 67.255C209.42 67.2883 209.562 67.32 209.755 67.35C209.939 67.3833 210.135 67.4433 210.345 67.53C210.559 67.6133 210.74 67.7417 210.89 67.915C211.04 68.0883 211.115 68.3217 211.115 68.615C211.115 68.935 211.044 69.195 210.9 69.395C210.76 69.5917 210.577 69.7433 210.35 69.85C210.127 69.9533 209.887 70.0233 209.63 70.06C209.374 70.1 209.132 70.12 208.905 70.12C208.552 70.12 208.249 70.09 207.995 70.03C207.745 69.97 207.547 69.9033 207.4 69.83C207.254 69.7567 207.155 69.7017 207.105 69.665L207.69 68.4C207.777 68.4667 207.917 68.545 208.11 68.635C208.307 68.725 208.505 68.77 208.705 68.77C208.872 68.77 208.994 68.7583 209.07 68.735C209.147 68.7083 209.185 68.6717 209.185 68.625C209.185 68.5883 209.167 68.5567 209.13 68.53C209.094 68.5033 209.035 68.4783 208.955 68.455C208.875 68.4317 208.77 68.4083 208.64 68.385C208.524 68.3617 208.39 68.3233 208.24 68.27C208.094 68.2167 207.95 68.14 207.81 68.04C207.674 67.94 207.56 67.81 207.47 67.65C207.38 67.49 207.335 67.295 207.335 67.065C207.335 66.7683 207.432 66.525 207.625 66.335C207.819 66.145 208.069 66.005 208.375 65.915C208.682 65.8217 209.005 65.775 209.345 65.775ZM213.838 65.775C214.141 65.775 214.418 65.7983 214.668 65.845C214.918 65.8917 215.124 65.9433 215.288 66C215.451 66.0533 215.551 66.0933 215.588 66.12L214.988 67.255C214.928 67.215 214.813 67.16 214.643 67.09C214.473 67.02 214.284 66.985 214.077 66.985C213.964 66.985 213.871 66.995 213.798 67.015C213.724 67.0317 213.688 67.0667 213.688 67.12C213.688 67.1733 213.733 67.2183 213.823 67.255C213.913 67.2883 214.054 67.32 214.248 67.35C214.431 67.3833 214.628 67.4433 214.838 67.53C215.051 67.6133 215.233 67.7417 215.383 67.915C215.533 68.0883 215.608 68.3217 215.608 68.615C215.608 68.935 215.536 69.195 215.393 69.395C215.253 69.5917 215.069 69.7433 214.843 69.85C214.619 69.9533 214.379 70.0233 214.123 70.06C213.866 70.1 213.624 70.12 213.398 70.12C213.044 70.12 212.741 70.09 212.488 70.03C212.238 69.97 212.039 69.9033 211.893 69.83C211.746 69.7567 211.648 69.7017 211.598 69.665L212.183 68.4C212.269 68.4667 212.409 68.545 212.603 68.635C212.799 68.725 212.998 68.77 213.198 68.77C213.364 68.77 213.486 68.7583 213.563 68.735C213.639 68.7083 213.678 68.6717 213.678 68.625C213.678 68.5883 213.659 68.5567 213.623 68.53C213.586 68.5033 213.528 68.4783 213.448 68.455C213.368 68.4317 213.263 68.4083 213.133 68.385C213.016 68.3617 212.883 68.3233 212.733 68.27C212.586 68.2167 212.443 68.14 212.303 68.04C212.166 67.94 212.053 67.81 211.963 67.65C211.873 67.49 211.828 67.295 211.828 67.065C211.828 66.7683 211.924 66.525 212.118 66.335C212.311 66.145 212.561 66.005 212.868 65.915C213.174 65.8217 213.498 65.775 213.838 65.775ZM217.955 68.335C217.971 68.415 218.013 68.4833 218.08 68.54C218.15 68.5933 218.238 68.635 218.345 68.665C218.455 68.695 218.578 68.71 218.715 68.71C218.861 68.71 219.005 68.7033 219.145 68.69C219.285 68.6767 219.413 68.655 219.53 68.625C219.646 68.595 219.74 68.5567 219.81 68.51L220.515 69.745C220.451 69.785 220.346 69.835 220.2 69.895C220.056 69.9517 219.853 70.0033 219.59 70.05C219.33 70.0967 218.993 70.12 218.58 70.12C218.116 70.12 217.696 70.0417 217.32 69.885C216.943 69.7283 216.643 69.4867 216.42 69.16C216.2 68.83 216.09 68.4117 216.09 67.905C216.09 67.505 216.181 67.145 216.365 66.825C216.548 66.5017 216.813 66.2467 217.16 66.06C217.506 65.87 217.926 65.775 218.42 65.775C218.896 65.775 219.308 65.855 219.655 66.015C220.005 66.175 220.273 66.4217 220.46 66.755C220.65 67.085 220.745 67.5083 220.745 68.025C220.745 68.0517 220.743 68.105 220.74 68.185C220.74 68.2617 220.736 68.3117 220.73 68.335H217.955ZM218.89 67.53C218.886 67.42 218.865 67.3283 218.825 67.255C218.788 67.1817 218.738 67.1283 218.675 67.095C218.611 67.0583 218.536 67.04 218.45 67.04C218.373 67.04 218.3 67.0567 218.23 67.09C218.163 67.12 218.108 67.1717 218.065 67.245C218.021 67.315 217.998 67.41 217.995 67.53H218.89ZM223.466 65.775C223.77 65.775 224.046 65.7983 224.296 65.845C224.546 65.8917 224.753 65.9433 224.916 66C225.08 66.0533 225.18 66.0933 225.216 66.12L224.616 67.255C224.556 67.215 224.441 67.16 224.271 67.09C224.101 67.02 223.913 66.985 223.706 66.985C223.593 66.985 223.5 66.995 223.426 67.015C223.353 67.0317 223.316 67.0667 223.316 67.12C223.316 67.1733 223.361 67.2183 223.451 67.255C223.541 67.2883 223.683 67.32 223.876 67.35C224.06 67.3833 224.256 67.4433 224.466 67.53C224.68 67.6133 224.861 67.7417 225.011 67.915C225.161 68.0883 225.236 68.3217 225.236 68.615C225.236 68.935 225.165 69.195 225.021 69.395C224.881 69.5917 224.698 69.7433 224.471 69.85C224.248 69.9533 224.008 70.0233 223.751 70.06C223.495 70.1 223.253 70.12 223.026 70.12C222.673 70.12 222.37 70.09 222.116 70.03C221.866 69.97 221.668 69.9033 221.521 69.83C221.375 69.7567 221.276 69.7017 221.226 69.665L221.811 68.4C221.898 68.4667 222.038 68.545 222.231 68.635C222.428 68.725 222.626 68.77 222.826 68.77C222.993 68.77 223.115 68.7583 223.191 68.735C223.268 68.7083 223.306 68.6717 223.306 68.625C223.306 68.5883 223.288 68.5567 223.251 68.53C223.215 68.5033 223.156 68.4783 223.076 68.455C222.996 68.4317 222.891 68.4083 222.761 68.385C222.645 68.3617 222.511 68.3233 222.361 68.27C222.215 68.2167 222.071 68.14 221.931 68.04C221.795 67.94 221.681 67.81 221.591 67.65C221.501 67.49 221.456 67.295 221.456 67.065C221.456 66.7683 221.553 66.525 221.746 66.335C221.94 66.145 222.19 66.005 222.496 65.915C222.803 65.8217 223.126 65.775 223.466 65.775Z" fill="white"/>
</svg>
