<svg width="1368" height="124" viewBox="0 0 1368 124" fill="none" xmlns="http://www.w3.org/2000/svg">
<g opacity="0.1" clip-path="url(#clip0_182_288)">
<path fill-rule="evenodd" clip-rule="evenodd" d="M62 61.9932C62.0036 27.7547 89.3524 0 123.088 0C123.393 0 123.697 0.00226069 124 0.00676645C123.996 34.2453 96.6477 62 62.9118 62C62.6074 62 62.3034 61.9977 62 61.9932Z" fill="#4FE309"/>
<path fill-rule="evenodd" clip-rule="evenodd" d="M62.0068 62C96.2453 62.0036 124 89.3524 124 123.088C124 123.393 123.998 123.697 123.993 124C89.7547 123.996 62 96.6476 62 62.9118C62 62.6073 62.0023 62.3034 62.0068 62Z" fill="#4FE309"/>
<path fill-rule="evenodd" clip-rule="evenodd" d="M0.00675964 -2.70981e-06C34.2453 0.00359902 62 27.3524 62 61.0882C62 61.3927 61.9977 61.6966 61.9932 62C27.7547 61.9964 -5.32919e-06 34.6476 -3.85455e-06 0.911751C-3.84124e-06 0.607308 0.00225447 0.303385 0.00675964 -2.70981e-06Z" fill="#4FE309"/>
<path fill-rule="evenodd" clip-rule="evenodd" d="M0 123.993C0.00360289 89.7547 27.3524 62 61.0882 62C61.3927 62 61.6967 62.0023 62.0001 62.0068C61.9965 96.2453 34.6477 124 0.911833 124C0.607364 124 0.303414 123.998 0 123.993Z" fill="#4FE309"/>
</g>
<g opacity="0.1" clip-path="url(#clip1_182_288)">
<path fill-rule="evenodd" clip-rule="evenodd" d="M227 61.9932C227.004 27.7547 254.352 0 288.088 0C288.393 0 288.697 0.00226069 289 0.00676645C288.996 34.2453 261.648 62 227.912 62C227.607 62 227.303 61.9977 227 61.9932Z" fill="#4FE309"/>
<path fill-rule="evenodd" clip-rule="evenodd" d="M227.007 62C261.245 62.0036 289 89.3524 289 123.088C289 123.393 288.998 123.697 288.993 124C254.755 123.996 227 96.6476 227 62.9118C227 62.6073 227.002 62.3034 227.007 62Z" fill="#4FE309"/>
<path fill-rule="evenodd" clip-rule="evenodd" d="M165.007 -2.70981e-06C199.245 0.00359902 227 27.3524 227 61.0882C227 61.3927 226.998 61.6966 226.993 62C192.755 61.9964 165 34.6476 165 0.911751C165 0.607308 165.002 0.303385 165.007 -2.70981e-06Z" fill="#4FE309"/>
<path fill-rule="evenodd" clip-rule="evenodd" d="M165 123.993C165.004 89.7547 192.352 62 226.088 62C226.393 62 226.697 62.0023 227 62.0068C226.996 96.2453 199.648 124 165.912 124C165.607 124 165.303 123.998 165 123.993Z" fill="#4FE309"/>
</g>
<g opacity="0.1" clip-path="url(#clip2_182_288)">
<path fill-rule="evenodd" clip-rule="evenodd" d="M1143 61.9932C1143 27.7547 1170.35 0 1204.09 0C1204.39 0 1204.7 0.00226069 1205 0.00676645C1205 34.2453 1177.65 62 1143.91 62C1143.61 62 1143.3 61.9977 1143 61.9932Z" fill="#4FE309"/>
<path fill-rule="evenodd" clip-rule="evenodd" d="M1143.01 62C1177.25 62.0036 1205 89.3524 1205 123.088C1205 123.393 1205 123.697 1204.99 124C1170.75 123.996 1143 96.6476 1143 62.9118C1143 62.6073 1143 62.3034 1143.01 62Z" fill="#4FE309"/>
<path fill-rule="evenodd" clip-rule="evenodd" d="M1081.01 -2.70981e-06C1115.25 0.00359902 1143 27.3524 1143 61.0882C1143 61.3927 1143 61.6966 1142.99 62C1108.75 61.9964 1081 34.6476 1081 0.911751C1081 0.607308 1081 0.303385 1081.01 -2.70981e-06Z" fill="#4FE309"/>
<path fill-rule="evenodd" clip-rule="evenodd" d="M1081 123.993C1081 89.7547 1108.35 62 1142.09 62C1142.39 62 1142.7 62.0023 1143 62.0068C1143 96.2453 1115.65 124 1081.91 124C1081.61 124 1081.3 123.998 1081 123.993Z" fill="#4FE309"/>
</g>
<g opacity="0.1" clip-path="url(#clip3_182_288)">
<path fill-rule="evenodd" clip-rule="evenodd" d="M1306 61.9932C1306 27.7547 1333.35 0 1367.09 0C1367.39 0 1367.7 0.00226069 1368 0.00676645C1368 34.2453 1340.65 62 1306.91 62C1306.61 62 1306.3 61.9977 1306 61.9932Z" fill="#4FE309"/>
<path fill-rule="evenodd" clip-rule="evenodd" d="M1306.01 62C1340.25 62.0036 1368 89.3524 1368 123.088C1368 123.393 1368 123.697 1367.99 124C1333.75 123.996 1306 96.6476 1306 62.9118C1306 62.6073 1306 62.3034 1306.01 62Z" fill="#4FE309"/>
<path fill-rule="evenodd" clip-rule="evenodd" d="M1244.01 -2.70981e-06C1278.25 0.00359902 1306 27.3524 1306 61.0882C1306 61.3927 1306 61.6966 1305.99 62C1271.75 61.9964 1244 34.6476 1244 0.911751C1244 0.607308 1244 0.303385 1244.01 -2.70981e-06Z" fill="#4FE309"/>
<path fill-rule="evenodd" clip-rule="evenodd" d="M1244 123.993C1244 89.7547 1271.35 62 1305.09 62C1305.39 62 1305.7 62.0023 1306 62.0068C1306 96.2453 1278.65 124 1244.91 124C1244.61 124 1244.3 123.998 1244 123.993Z" fill="#4FE309"/>
</g>
<defs>
<clipPath id="clip0_182_288">
<rect width="124" height="124" fill="white"/>
</clipPath>
<clipPath id="clip1_182_288">
<rect width="124" height="124" fill="white" transform="translate(165)"/>
</clipPath>
<clipPath id="clip2_182_288">
<rect width="124" height="124" fill="white" transform="translate(1081)"/>
</clipPath>
<clipPath id="clip3_182_288">
<rect width="124" height="124" fill="white" transform="translate(1244)"/>
</clipPath>
</defs>
</svg>
