<svg width="232" height="33" viewBox="0 0 232 33" fill="none" xmlns="http://www.w3.org/2000/svg">
<path d="M17.5938 32.5664C14.4036 32.5664 11.5065 31.974 8.90234 30.7891C6.27214 29.6172 4.16927 27.7943 2.59375 25.3203C1.01823 22.8464 0.230469 19.7279 0.230469 15.9648C0.230469 12.9701 0.848958 10.2878 2.08594 7.91797C3.32292 5.54818 5.11979 3.69271 7.47656 2.35156C9.84635 0.997396 12.6328 0.320312 15.8359 0.320312C17.1901 0.320312 18.5052 0.548177 19.7812 1.00391C21.0703 1.45964 22.0859 2.1237 22.8281 2.99609L23.4727 0.925781H30.2305V12.3906H24.1953C23.7917 10.75 23.0169 9.50651 21.8711 8.66016C20.7253 7.8138 19.5273 7.39062 18.2773 7.39062C16.194 7.39062 14.5469 8.15234 13.3359 9.67578C12.125 11.1992 11.5195 13.2956 11.5195 15.9648C11.5195 18.6602 12.1185 20.776 13.3164 22.3125C14.5143 23.8359 16.207 24.5977 18.3945 24.5977C18.9154 24.5977 19.4753 24.5456 20.0742 24.4414C20.5169 24.3633 20.9336 24.2591 21.3242 24.1289C21.7148 23.9857 21.9753 23.901 22.1055 23.875V21.1211H18.3555V15.3203H30.875V29.2852C28.8698 30.3529 26.7214 31.1667 24.4297 31.7266C22.138 32.2865 19.8594 32.5664 17.5938 32.5664ZM45.2633 32H30.2633V26.1211H32.7828V17.1172H30.2633V11.8438L42.1383 10.6719V14.0703C42.5549 13.4193 43.1669 12.8398 43.9742 12.332C44.7815 11.8112 45.6409 11.4076 46.5523 11.1211C47.4768 10.8216 48.3036 10.6719 49.0328 10.6719V18.9531C47.5094 18.4453 46.2529 18.1914 45.2633 18.1914C44.0133 18.1914 43.1799 18.556 42.7633 19.2852C42.3466 20.0013 42.1383 20.9453 42.1383 22.1172V26.1211H45.2633V32ZM59.4758 32.3516C57.0539 32.3516 54.951 31.9023 53.1672 31.0039C51.3703 30.1185 49.9901 28.849 49.0266 27.1953C48.076 25.5417 47.6008 23.6081 47.6008 21.3945C47.6008 19.207 48.0695 17.306 49.007 15.6914C49.9315 14.0898 51.2401 12.8529 52.9328 11.9805C54.6255 11.1081 56.6112 10.6719 58.8898 10.6719C60.9862 10.6719 62.8352 11.082 64.4367 11.9023C66.0383 12.7357 67.2753 13.9141 68.1477 15.4375C69.0331 16.9609 69.4758 18.7383 69.4758 20.7695C69.4758 21.4727 69.3716 22.1367 69.1633 22.7617H56.9953C56.9953 23.9857 57.4576 24.9688 58.382 25.7109C59.3065 26.4401 60.4198 26.8047 61.7219 26.8047C62.7115 26.8047 63.7987 26.6354 64.9836 26.2969C66.1685 25.9453 67.3599 25.4049 68.5578 24.6758L68.8898 24.793V30.0469C67.5487 30.8151 66.1685 31.3945 64.7492 31.7852C63.343 32.1628 61.5852 32.3516 59.4758 32.3516ZM56.9953 18.7578V19.3242H61.9953V18.9141C61.9953 17.9896 61.7805 17.1953 61.3508 16.5312C60.9341 15.8542 60.3091 15.5156 59.4758 15.5156C58.7857 15.5156 58.1997 15.8607 57.718 16.5508C57.2362 17.2279 56.9953 17.9635 56.9953 18.7578ZM80.7977 32.3516C78.3758 32.3516 76.2729 31.9023 74.4891 31.0039C72.6922 30.1185 71.312 28.849 70.3484 27.1953C69.3979 25.5417 68.9227 23.6081 68.9227 21.3945C68.9227 19.207 69.3914 17.306 70.3289 15.6914C71.2534 14.0898 72.562 12.8529 74.2547 11.9805C75.9474 11.1081 77.9331 10.6719 80.2117 10.6719C82.3081 10.6719 84.157 11.082 85.7586 11.9023C87.3602 12.7357 88.5971 13.9141 89.4695 15.4375C90.3549 16.9609 90.7977 18.7383 90.7977 20.7695C90.7977 21.4727 90.6935 22.1367 90.4852 22.7617H78.3172C78.3172 23.9857 78.7794 24.9688 79.7039 25.7109C80.6284 26.4401 81.7417 26.8047 83.0437 26.8047C84.0333 26.8047 85.1206 26.6354 86.3055 26.2969C87.4904 25.9453 88.6818 25.4049 89.8797 24.6758L90.2117 24.793V30.0469C88.8706 30.8151 87.4904 31.3945 86.0711 31.7852C84.6648 32.1628 82.907 32.3516 80.7977 32.3516ZM78.3172 18.7578V19.3242H83.3172V18.9141C83.3172 17.9896 83.1023 17.1953 82.6727 16.5312C82.256 15.8542 81.631 15.5156 80.7977 15.5156C80.1075 15.5156 79.5216 15.8607 79.0398 16.5508C78.5581 17.2279 78.3172 17.9635 78.3172 18.7578ZM102.12 32.3516C99.7367 32.3516 97.6599 31.8958 95.8891 30.9844C94.1052 30.0859 92.7185 28.8099 91.7289 27.1562C90.7393 25.5026 90.2445 23.556 90.2445 21.3164C90.2445 19.2982 90.6612 17.4818 91.4945 15.8672C92.3148 14.2526 93.4867 12.9831 95.0102 12.0586C96.5466 11.1341 98.3305 10.6719 100.362 10.6719C101.13 10.6719 101.944 10.7695 102.803 10.9648C103.662 11.1471 104.431 11.4206 105.108 11.7852C105.798 12.1497 106.254 12.6055 106.475 13.1523L107.276 11.082H111.534V19.7148H105.889C105.785 18.6732 105.479 17.8594 104.971 17.2734C104.463 16.6875 103.832 16.3945 103.077 16.3945C101.957 16.3945 101.104 16.7526 100.518 17.4688C99.932 18.1719 99.6391 19.4674 99.6391 21.3555C99.6391 22.6576 99.8734 23.6862 100.342 24.4414C100.824 25.1836 101.442 25.7174 102.198 26.043C102.966 26.3555 103.78 26.5117 104.639 26.5117C105.577 26.5117 106.592 26.349 107.686 26.0234C108.78 25.6849 109.75 25.1576 110.596 24.4414L110.889 24.6367V30.0859C110.889 30.138 110.492 30.3594 109.698 30.75C108.903 31.1536 107.849 31.5247 106.534 31.8633C105.218 32.1888 103.747 32.3516 102.12 32.3516ZM123.129 32.3516C120.759 32.3516 118.695 31.9154 116.938 31.043C115.154 30.1836 113.767 28.9206 112.777 27.2539C111.788 25.5872 111.293 23.6081 111.293 21.3164C111.293 19.0378 111.788 17.1042 112.777 15.5156C113.767 13.9141 115.154 12.7096 116.938 11.9023C118.721 11.082 120.785 10.6719 123.129 10.6719C125.538 10.6719 127.628 11.0885 129.398 11.9219C131.182 12.7552 132.562 13.9661 133.539 15.5547C134.516 17.1302 135.004 19.0508 135.004 21.3164C135.004 23.6081 134.516 25.5872 133.539 27.2539C132.549 28.9206 131.156 30.1901 129.359 31.0625C127.576 31.9219 125.499 32.3516 123.129 32.3516ZM123.129 26.6484C123.988 26.6484 124.626 26.2253 125.043 25.3789C125.447 24.5586 125.648 23.2044 125.648 21.3164C125.648 19.5846 125.447 18.3346 125.043 17.5664C124.652 16.7852 124.014 16.3945 123.129 16.3945C122.283 16.3945 121.658 16.7852 121.254 17.5664C120.85 18.3346 120.648 19.5846 120.648 21.3164C120.648 23.1654 120.857 24.5195 121.273 25.3789C121.69 26.2253 122.309 26.6484 123.129 26.6484ZM173.904 18.7188V26.3555H176.619V32H164.548V18.6797C164.548 18.1198 164.366 17.625 164.002 17.1953C163.637 16.7656 163.201 16.5508 162.693 16.5508C161.742 16.5508 161.143 17.026 160.896 17.9766C160.636 18.9531 160.505 20.3203 160.505 22.0781V32H151.13V18.6797C151.13 18.1198 150.948 17.625 150.584 17.1953C150.232 16.7656 149.802 16.5508 149.295 16.5508C148.344 16.5508 147.745 17.026 147.498 17.9766C147.237 18.9531 147.107 20.3203 147.107 22.0781V26.3555H147.146V32H134.939V26.3555H137.771V17.1172H134.939V11.8438L147.107 10.6719V13.6016C148.005 12.5339 149.028 11.7786 150.173 11.3359C151.319 10.8932 152.615 10.6719 154.06 10.6719C157.016 10.6719 158.949 11.9284 159.861 14.4414C160.824 13.0742 161.931 12.1042 163.181 11.5312C164.431 10.9583 165.857 10.6719 167.459 10.6719C171.755 10.6719 173.904 13.3542 173.904 18.7188ZM182.238 32.3516C180.909 32.3516 179.705 32.0911 178.624 31.5703C177.53 31.0625 176.658 30.3268 176.007 29.3633C175.356 28.3997 175.03 27.2799 175.03 26.0039C175.03 24.6237 175.415 23.4518 176.183 22.4883C176.951 21.5508 177.954 20.8477 179.191 20.3789C180.441 19.9102 181.788 19.6758 183.234 19.6758C184.939 19.6758 186.58 19.9297 188.155 20.4375V19.5586C188.155 18.5169 187.713 17.7227 186.827 17.1758C185.955 16.6289 184.77 16.3555 183.273 16.3555C182.635 16.3555 181.918 16.4336 181.124 16.5898C180.33 16.7461 179.555 16.9609 178.8 17.2344C178.045 17.5078 177.387 17.8138 176.827 18.1523L176.261 17.918V12.2344C177.836 11.6745 179.445 11.2773 181.085 11.043C182.726 10.7956 184.256 10.6719 185.675 10.6719C193.592 10.6719 197.55 12.8984 197.55 17.3516V26.1211H199.386V32H189.386L188.507 28.7969C187.947 29.8906 187.075 30.7565 185.89 31.3945C184.705 32.0326 183.488 32.3516 182.238 32.3516ZM185.909 27.3516C186.339 27.3516 186.775 27.2799 187.218 27.1367C187.674 26.9935 187.986 26.8438 188.155 26.6875V23.4062C187.96 23.3802 187.648 23.3021 187.218 23.1719C186.775 23.0547 186.391 22.9961 186.066 22.9961C185.376 22.9961 184.822 23.2109 184.405 23.6406C184.002 24.0703 183.8 24.6432 183.8 25.3594C183.8 25.8932 183.989 26.362 184.366 26.7656C184.757 27.1562 185.271 27.3516 185.909 27.3516ZM213.423 32H198.423V26.1211H200.942V17.1172H198.423V11.8438L210.298 10.6719V14.0703C210.714 13.4193 211.326 12.8398 212.134 12.332C212.941 11.8112 213.8 11.4076 214.712 11.1211C215.636 10.8216 216.463 10.6719 217.192 10.6719V18.9531C215.669 18.4453 214.412 18.1914 213.423 18.1914C212.173 18.1914 211.339 18.556 210.923 19.2852C210.506 20.0013 210.298 20.9453 210.298 22.1172V26.1211H213.423V32ZM225.799 32.3516C220.786 32.3516 218.28 29.7409 218.28 24.5195V16.8047H215.155V11.082H218.28V6.60938L227.635 4.51953V11.082H231.385V16.8047H227.635V23.8359C227.635 24.4219 227.857 24.9102 228.299 25.3008C228.742 25.6914 229.295 25.8867 229.959 25.8867C230.441 25.8867 230.916 25.8477 231.385 25.7695V31.1992C229.666 31.9674 227.804 32.3516 225.799 32.3516Z" fill="#045D1D"/>
</svg>
