<svg width="29" height="30" viewBox="0 0 29 30" fill="none" xmlns="http://www.w3.org/2000/svg">
<path d="M28.9128 1.2611C28.8948 0.955302 28.7642 0.666705 28.5457 0.450103C28.3272 0.233502 28.0361 0.103976 27.7277 0.0861176C15.7298 -0.612311 6.11956 2.96889 2.02203 9.68755C0.601714 11.9858 -0.0981853 14.6505 0.0110966 17.3437C0.0824287 19.0659 0.435859 20.7652 1.05754 22.3749C1.09407 22.4739 1.15529 22.5622 1.23551 22.6315C1.31573 22.7008 1.41233 22.7488 1.51631 22.7711C1.62029 22.7934 1.72828 22.7893 1.83021 22.7591C1.93214 22.7289 2.02469 22.6736 2.09926 22.5983L15.495 9.11412C15.6121 8.99799 15.7512 8.90586 15.9043 8.84301C16.0573 8.78016 16.2213 8.74781 16.387 8.74781C16.5527 8.74781 16.7167 8.78016 16.8697 8.84301C17.0228 8.90586 17.1619 8.99799 17.279 9.11412C17.3961 9.23026 17.4891 9.36813 17.5525 9.51987C17.6158 9.67161 17.6485 9.83424 17.6485 9.99848C17.6485 10.1627 17.6158 10.3254 17.5525 10.4771C17.4891 10.6288 17.3961 10.7667 17.279 10.8828L2.63981 25.6155L0.403513 27.8326C0.17094 28.0571 0.0320918 28.3601 0.014572 28.6815C-0.00294777 29.0028 0.102144 29.3189 0.308955 29.567C0.422215 29.697 0.561297 29.8025 0.717519 29.8769C0.87374 29.9512 1.04375 29.9929 1.21692 29.9992C1.3901 30.0055 1.56273 29.9763 1.72403 29.9135C1.88533 29.8507 2.03184 29.7556 2.15442 29.6342L4.80047 27.0108C7.02889 28.0795 9.2778 28.6623 11.5078 28.7404C11.6833 28.7467 11.8582 28.7498 12.0326 28.7498C14.5721 28.7562 17.0635 28.0627 19.2285 26.7467C26.0051 22.6843 29.6188 13.1578 28.9128 1.2611Z" fill="white"/>
</svg>
