<svg width="27" height="22" viewBox="0 0 27 22" fill="none" xmlns="http://www.w3.org/2000/svg">
<path d="M1.01284 6.93815C-0.82151 6.03256 0.248527 4.88746 1.01284 4.4281H4.28846C6.16648 5.0187 6.4904 6.44598 6.41761 7.0858L5.10736 8.31621H24.8157C25.7412 8.54006 26.2982 9.05404 26.6179 9.59584C26.9168 10.1023 27.0082 10.6331 26.9994 10.9739L20.8303 12.2043H23.6692C24.7155 12.3222 25.331 12.9404 25.6682 13.5829C25.8939 14.0131 25.9949 14.4543 26.0167 14.7636L19.9023 16.1416L22.9049 16.2401C24.5646 17.1063 23.6692 18.2087 23.0141 18.6517H9.03811C7.24744 18.1792 7.408 17.2065 7.44439 16.5667L22.5112 14.7636H7.12733C6.19046 14.5826 5.61246 14.1029 5.27114 13.5829C4.94417 13.0847 5.27114 13.2703 5.27114 12.9251L22.0199 10.8755H4.45224C3.54546 10.765 2.98592 10.2051 2.6598 9.59584C2.40473 9.11932 2.29245 8.61258 2.26849 8.26699L3.57874 7.02892L6.41761 7.0858L1.01284 6.93815Z" fill="#D8F7DD"/>
<path d="M25.1986 8.65588H23.0964C23.0964 13.5674 18.8436 15.3234 16.7172 15.5875C10.7439 16.5381 8.47736 11.3625 8.09074 8.65588H5.91602C6.37996 16.1024 13.0201 17.6999 16.2822 17.5679C23.6473 17.0926 25.2953 11.4285 25.1986 8.65588Z" fill="#045D1D"/>
<path d="M22.0448 8.65588L19.6612 8.8539C19.3904 11.6656 18.462 12.405 15.9011 12.7482C12.8965 12.8089 12.0675 11.5409 11.3456 8.65588H9.03174C10.1164 13.8042 13.6997 14.9551 15.9011 14.8603C20.8715 14.5191 22.11 10.6461 22.0448 8.65588Z" fill="#045D1D"/>
<path d="M8.02008 8.88171L5.91943 8.88171C5.82285 6.11851 7.54845 0.473671 14.908 -2.0234e-05L17.5112 -2.00272e-05L17.5112 1.9737L14.4734 1.9737C12.3486 2.23686 8.02008 3.98689 8.02008 8.88171Z" fill="#045D1D"/>
<rect x="18.1035" y="7.60217" width="7.84871" height="1.61828" fill="#045D1D"/>
<ellipse cx="11.3705" cy="20.5106" rx="1.10434" ry="1.05377" fill="#045D1D"/>
<ellipse cx="19.8895" cy="20.5106" rx="1.10434" ry="1.05377" fill="#045D1D"/>
</svg>
