<svg width="30" height="23" viewBox="0 0 30 23" fill="none" xmlns="http://www.w3.org/2000/svg">
<path d="M28.8462 0H1.15385C0.847827 0 0.554342 0.121161 0.337954 0.336827C0.121566 0.552494 0 0.845001 0 1.15V20.7C0 21.31 0.243131 21.895 0.675907 22.3263C1.10868 22.7577 1.69565 23 2.30769 23H27.6923C28.3043 23 28.8913 22.7577 29.3241 22.3263C29.7569 21.895 30 21.31 30 20.7V1.15C30 0.845001 29.8784 0.552494 29.662 0.336827C29.4457 0.121161 29.1522 0 28.8462 0ZM15 12.2403L4.12067 2.3H25.8793L15 12.2403ZM10.7755 11.5L2.30769 19.2352V3.76481L10.7755 11.5ZM12.4832 13.0597L14.2139 14.6481C14.4268 14.8429 14.7053 14.951 14.9942 14.951C15.2832 14.951 15.5616 14.8429 15.7745 14.6481L17.5053 13.0597L25.8707 20.7H4.12067L12.4832 13.0597ZM19.2245 11.5L27.6923 3.76338V19.2366L19.2245 11.5Z" fill="black"/>
</svg>
