<svg width="28" height="30" viewBox="0 0 28 30" fill="none" xmlns="http://www.w3.org/2000/svg">
<path d="M27.9999 13.9283V24.6428C27.9999 26.0636 27.4326 27.4262 26.4228 28.4309C25.413 29.4356 24.0434 30 22.6153 30H15.0769C14.7913 30 14.5173 29.8871 14.3154 29.6862C14.1134 29.4852 13.9999 29.2127 13.9999 28.9286C13.9999 28.6444 14.1134 28.3719 14.3154 28.1709C14.5173 27.97 14.7913 27.8571 15.0769 27.8571H22.6153C23.4722 27.8571 24.2939 27.5185 24.8998 26.9157C25.5057 26.3129 25.8461 25.4953 25.8461 24.6428H22.6153C21.7585 24.6428 20.9367 24.3041 20.3308 23.7013C19.7249 23.0985 19.3845 22.2809 19.3845 21.4284V16.0712C19.3845 15.2187 19.7249 14.4012 20.3308 13.7983C20.9367 13.1955 21.7585 12.8569 22.6153 12.8569H25.7989C25.5951 10.6295 24.7586 8.50587 23.3869 6.73391C22.0152 4.96196 20.1651 3.61489 18.0527 2.85004C15.9402 2.0852 13.6526 1.93415 11.4571 2.41455C9.26162 2.89495 7.24881 3.98696 5.65383 5.56303C3.67048 7.51026 2.44719 10.0954 2.2023 12.8569H5.3846C6.24145 12.8569 7.0632 13.1955 7.66909 13.7983C8.27497 14.4012 8.61535 15.2187 8.61535 16.0712V21.4284C8.61535 22.2809 8.27497 23.0985 7.66909 23.7013C7.0632 24.3041 6.24145 24.6428 5.3846 24.6428H3.23076C2.37391 24.6428 1.55215 24.3041 0.946267 23.7013C0.340382 23.0985 0 22.2809 0 21.4284V13.9283C0.00301933 11.1692 0.828721 8.47304 2.37259 6.18103C3.91646 3.88902 6.10909 2.10423 8.67295 1.05259C11.2368 0.000937765 14.0566 -0.270295 16.7755 0.27322C19.4944 0.816734 21.99 2.15056 23.9466 4.10587C25.2385 5.39737 26.2614 6.92978 26.957 8.6153C27.6525 10.3008 28.0069 12.1063 27.9999 13.9283Z" fill="white"/>
</svg>
