<svg width="30" height="34" viewBox="0 0 30 34" fill="none" xmlns="http://www.w3.org/2000/svg">
<path d="M29.9975 32.7501C29.972 32.4487 29.8351 32.1682 29.6144 31.9651C29.3937 31.7621 29.1055 31.6514 28.8078 31.6555H22.9227L22.0142 25.1906L22.4814 25.4705C22.7426 25.6268 23.0314 25.7293 23.3316 25.7721C23.6317 25.815 23.9372 25.7973 24.2306 25.7202C24.524 25.643 24.7996 25.5079 25.0416 25.3225C25.2836 25.1371 25.4873 24.9051 25.641 24.6397L27.3441 21.709C27.6443 21.2044 27.7525 20.6056 27.6483 20.0254C27.5866 19.6989 27.4569 19.3895 27.2678 19.1181C27.0788 18.8467 26.8349 18.6195 26.5524 18.4517L18.0182 13.3393C17.7594 13.1893 17.566 12.9453 17.4769 12.6563C17.3878 12.3674 17.4097 12.0549 17.538 11.7816C17.609 11.6382 17.7082 11.5111 17.8294 11.4082C17.9507 11.3053 18.0915 11.2288 18.2431 11.1835C18.3946 11.1381 18.5537 11.1249 18.7105 11.1446C18.8673 11.1643 19.0185 11.2166 19.1546 11.2981L22.1757 13.1048C22.3073 13.1841 22.4644 13.207 22.6126 13.1685C22.7608 13.13 22.8879 13.0333 22.966 12.8997L27.3715 5.29475C27.5255 5.02935 27.6266 4.73569 27.6689 4.43058C27.7111 4.12546 27.6938 3.81487 27.6179 3.51656C27.5419 3.21825 27.4089 2.93808 27.2263 2.69206C27.0437 2.44605 26.8152 2.23902 26.5538 2.08281L23.6207 0.324449C23.3595 0.16814 23.0706 0.0656369 22.7705 0.0227963C22.4704 -0.0200443 22.1649 -0.00238348 21.8715 0.07477C21.5781 0.151923 21.3025 0.287058 21.0605 0.472454C20.8185 0.65785 20.6148 0.889875 20.4611 1.15527L15.4139 9.86209C15.3308 10.0055 15.2186 10.1294 15.0848 10.2253C14.951 10.3213 14.7986 10.3872 14.6377 10.4187C14.4769 10.4501 14.3113 10.4464 14.152 10.4078C13.9926 10.3692 13.8432 10.2966 13.7137 10.1947C13.4923 10.0141 13.343 9.758 13.2934 9.47396C13.2438 9.18993 13.2973 8.89726 13.444 8.65029L15.2077 5.60539C15.2843 5.47125 15.3054 5.31173 15.2665 5.16178C15.2276 5.01182 15.1317 4.88365 15 4.80534L7.51857 0.33031C7.25744 0.174001 6.96856 0.0714981 6.66843 0.0286575C6.36831 -0.0141831 6.06281 0.00347772 5.7694 0.0806312C5.476 0.157785 5.20042 0.292919 4.95842 0.478315C4.71642 0.663711 4.51274 0.895736 4.35901 1.16114L2.65593 4.09174C2.35581 4.59591 2.24758 5.19424 2.35166 5.7739C2.41392 6.10043 2.54385 6.40976 2.73281 6.68135C2.92177 6.95293 3.16544 7.18056 3.44763 7.3491L11.9832 12.4601C12.2345 12.6053 12.4244 12.8394 12.5167 13.1177C12.609 13.3961 12.5972 13.6992 12.4836 13.9693C12.4172 14.1198 12.3203 14.2543 12.1993 14.3641C12.0783 14.4739 11.9358 14.5566 11.7812 14.6066C11.6266 14.6567 11.4633 14.673 11.3021 14.6546C11.1408 14.6362 10.9852 14.5835 10.8454 14.4998L7.81708 12.6916C7.68581 12.6149 7.53012 12.5937 7.38362 12.6327C7.23712 12.6716 7.11156 12.7675 7.03404 12.8997L2.62853 20.5046C2.4747 20.7699 2.37383 21.0634 2.33166 21.3684C2.2895 21.6734 2.30688 21.9838 2.38281 22.2819C2.45874 22.5801 2.59173 22.8601 2.77419 23.106C2.95665 23.3519 3.18499 23.5588 3.44618 23.715L6.37934 25.4734C6.83743 25.7524 7.37836 25.8563 7.90505 25.7665L7.0773 31.6555H1.19512C0.896904 31.6507 0.607986 31.761 0.386654 31.9641C0.165322 32.1673 0.0280513 32.4481 0.00253478 32.7501C-0.00794315 32.9104 0.0141369 33.0713 0.0674033 33.2226C0.12067 33.3739 0.203985 33.5125 0.312174 33.6297C0.420362 33.7469 0.551114 33.8402 0.696308 33.9039C0.841501 33.9677 0.998035 34.0003 1.15619 34H28.8438C29.002 34.0003 29.1585 33.9677 29.3037 33.9039C29.4489 33.8402 29.5796 33.7469 29.6878 33.6297C29.796 33.5125 29.8793 33.3739 29.9326 33.2226C29.9859 33.0713 30.0079 32.9104 29.9975 32.7501ZM9.40768 31.6555L10.6738 22.6879L12.5153 19.5082L14.5674 15.9665C14.715 15.7039 14.9548 15.5076 15.2389 15.4171C15.5229 15.3266 15.8301 15.3486 16.0989 15.4786C16.24 15.5507 16.3651 15.6515 16.4664 15.7747C16.5676 15.8979 16.6429 16.041 16.6875 16.195C16.7322 16.349 16.7452 16.5107 16.7258 16.67C16.7064 16.8293 16.655 16.9829 16.5747 17.1212L14.7967 20.1983C14.7194 20.3322 14.6975 20.4918 14.7359 20.6421C14.7743 20.7924 14.8698 20.921 15.0014 20.9998L19.4718 23.674L20.5923 31.6555H9.40768Z" fill="white"/>
</svg>
